# MagicaVoxel @ Ephtracy

# group
o 

# material
mtllib Pedestrian01.mtl
usemtl palette

# normals
vn -1 0 0
vn 1 0 0
vn 0 0 1
vn 0 0 -1
vn 0 -1 0
vn 0 1 0

# texcoords
vt 0.662109 0.5
vt 0.970703 0.5
vt 0.974609 0.5
vt 0.978516 0.5
vt 0.982422 0.5

# verts
v -0.5 0.6 0
v -0.5 0.6 -0.2
v -0.5 1 0
v -0.5 1 -0.2
v -0.5 1.2 0
v -0.5 1.2 -0.2
v -0.3 0 0.2
v -0.3 0 -0.1
v -0.3 0.1 0
v -0.3 0.1 -0.1
v -0.3 0.2 0.2
v -0.3 0.2 0
v -0.3 0.4 0.2
v -0.3 0.4 0.1
v -0.3 0.4 0
v -0.3 0.4 -0.1
v -0.3 0.6 0
v -0.3 0.6 -0.1
v -0.3 0.7 0.1
v -0.3 0.7 0
v -0.3 1 0
v -0.3 1.2 0.1
v -0.3 1.2 0
v -0.2 1.3 0.2
v -0.2 1.3 -0.2
v -0.2 1.6 0.2
v -0.2 1.6 -0.2
v -0.2 1.6 -0.3
v -0.2 1.7 -0.2
v -0.2 1.7 -0.3
v -0.2 1.8 0.2
v -0.2 1.8 -0.2
v -0.1 1.2 0.1
v -0.1 1.2 -0.1
v -0.1 1.3 0.1
v -0.1 1.3 -0.1
v 0.1 0 0
v 0.1 0 -0.3
v 0.1 0.1 -0.2
v 0.1 0.1 -0.3
v 0.1 0.2 0
v 0.1 0.2 -0.2
v 0.1 0.4 0.1
v 0.1 0.4 0
v 0.1 0.4 -0.1
v 0.1 0.4 -0.2
v 0.1 0.6 0.1
v 0.1 0.6 -0.1
v 0.3 0.6 0.2
v 0.3 0.6 0.1
v 0.3 0.7 0.1
v 0.3 1 0.2
v 0.3 1 0.1
v 0.3 1.2 0.2
v 0.3 1.2 0.1
v -0.3 0.6 -0.1
v -0.3 0.6 -0.2
v -0.3 0.7 -0.1
v -0.3 1 -0.1
v -0.3 1 -0.2
v -0.3 1.2 -0.1
v -0.3 1.2 -0.2
v -0.1 0 0.2
v -0.1 0 -0.1
v -0.1 0.1 0
v -0.1 0.1 -0.1
v -0.1 0.2 0.2
v -0.1 0.2 0
v -0.1 0.4 0.2
v -0.1 0.4 0.1
v -0.1 0.4 0
v -0.1 0.4 -0.1
v -0.1 0.6 0.1
v -0.1 0.6 -0.1
v 0.1 1.2 0.1
v 0.1 1.2 -0.1
v 0.1 1.3 0.1
v 0.1 1.3 -0.1
v 0.2 1.3 0.2
v 0.2 1.3 -0.2
v 0.2 1.6 0.2
v 0.2 1.6 -0.2
v 0.2 1.6 -0.3
v 0.2 1.7 -0.2
v 0.2 1.7 -0.3
v 0.2 1.8 0.2
v 0.2 1.8 -0.2
v 0.3 0 0
v 0.3 0 -0.3
v 0.3 0.1 -0.2
v 0.3 0.1 -0.3
v 0.3 0.2 0
v 0.3 0.2 -0.2
v 0.3 0.4 0.1
v 0.3 0.4 0
v 0.3 0.4 -0.1
v 0.3 0.4 -0.2
v 0.3 0.6 0.1
v 0.3 0.6 0
v 0.3 0.7 0
v 0.3 0.7 -0.1
v 0.3 1 0
v 0.3 1.2 0
v 0.3 1.2 -0.1
v 0.5 0.6 0.2
v 0.5 0.6 0
v 0.5 1 0.2
v 0.5 1 0
v 0.5 1.2 0.2
v 0.5 1.2 0
v -0.3 0 0.2
v -0.3 0.2 0.2
v -0.3 0.4 0.2
v -0.2 1.3 0.2
v -0.2 1.6 0.2
v -0.2 1.8 0.2
v -0.1 0 0.2
v -0.1 0.2 0.2
v -0.1 0.4 0.2
v 0.2 1.3 0.2
v 0.2 1.6 0.2
v 0.2 1.8 0.2
v 0.3 0.6 0.2
v 0.3 1 0.2
v 0.3 1.2 0.2
v 0.5 0.6 0.2
v 0.5 1 0.2
v 0.5 1.2 0.2
v -0.3 0.4 0.1
v -0.3 0.7 0.1
v -0.3 1.2 0.1
v -0.1 0.4 0.1
v -0.1 0.6 0.1
v -0.1 1.2 0.1
v -0.1 1.3 0.1
v 0.1 0.4 0.1
v 0.1 0.6 0.1
v 0.1 1.2 0.1
v 0.1 1.3 0.1
v 0.3 0.4 0.1
v 0.3 0.6 0.1
v 0.3 0.7 0.1
v 0.3 1 0.1
v 0.3 1.2 0.1
v -0.5 0.6 0
v -0.5 1 0
v -0.5 1.2 0
v -0.3 0.6 0
v -0.3 0.7 0
v -0.3 1 0
v -0.3 1.2 0
v 0.1 0 0
v 0.1 0.2 0
v 0.1 0.4 0
v 0.3 0 0
v 0.3 0.2 0
v 0.3 0.4 0
v -0.3 0.1 0
v -0.3 0.2 0
v -0.3 0.4 0
v -0.1 0.1 0
v -0.1 0.2 0
v -0.1 0.4 0
v 0.3 0.6 0
v 0.3 0.7 0
v 0.3 1 0
v 0.3 1.2 0
v 0.5 0.6 0
v 0.5 1 0
v 0.5 1.2 0
v -0.3 0 -0.1
v -0.3 0.1 -0.1
v -0.3 0.4 -0.1
v -0.3 0.6 -0.1
v -0.3 0.7 -0.1
v -0.3 1 -0.1
v -0.3 1.2 -0.1
v -0.1 0 -0.1
v -0.1 0.1 -0.1
v -0.1 0.4 -0.1
v -0.1 0.6 -0.1
v -0.1 1.2 -0.1
v -0.1 1.3 -0.1
v 0.1 0.4 -0.1
v 0.1 0.6 -0.1
v 0.1 1.2 -0.1
v 0.1 1.3 -0.1
v 0.3 0.4 -0.1
v 0.3 0.7 -0.1
v 0.3 1.2 -0.1
v -0.5 0.6 -0.2
v -0.5 1 -0.2
v -0.5 1.2 -0.2
v -0.3 0.6 -0.2
v -0.3 1 -0.2
v -0.3 1.2 -0.2
v -0.2 1.3 -0.2
v -0.2 1.6 -0.2
v -0.2 1.7 -0.2
v -0.2 1.8 -0.2
v 0.1 0.1 -0.2
v 0.1 0.2 -0.2
v 0.1 0.4 -0.2
v 0.2 1.3 -0.2
v 0.2 1.6 -0.2
v 0.2 1.7 -0.2
v 0.2 1.8 -0.2
v 0.3 0.1 -0.2
v 0.3 0.2 -0.2
v 0.3 0.4 -0.2
v -0.2 1.6 -0.3
v -0.2 1.7 -0.3
v 0.1 0 -0.3
v 0.1 0.1 -0.3
v 0.2 1.6 -0.3
v 0.2 1.7 -0.3
v 0.3 0 -0.3
v 0.3 0.1 -0.3
v -0.3 0 0.2
v -0.1 0 0.2
v 0.1 0 0
v 0.3 0 0
v -0.3 0 -0.1
v -0.1 0 -0.1
v 0.1 0 -0.3
v 0.3 0 -0.3
v 0.1 0.4 0.1
v 0.3 0.4 0.1
v -0.3 0.4 0
v -0.1 0.4 0
v 0.1 0.4 0
v 0.3 0.4 0
v -0.3 0.4 -0.1
v -0.1 0.4 -0.1
v 0.3 0.6 0.2
v 0.5 0.6 0.2
v -0.1 0.6 0.1
v 0.1 0.6 0.1
v 0.3 0.6 0.1
v -0.5 0.6 0
v -0.3 0.6 0
v 0.3 0.6 0
v 0.5 0.6 0
v -0.3 0.6 -0.1
v -0.1 0.6 -0.1
v 0.1 0.6 -0.1
v -0.5 0.6 -0.2
v -0.3 0.6 -0.2
v -0.2 1.3 0.2
v 0.2 1.3 0.2
v -0.1 1.3 0.1
v 0.1 1.3 0.1
v -0.1 1.3 -0.1
v 0.1 1.3 -0.1
v -0.2 1.3 -0.2
v 0.2 1.3 -0.2
v -0.2 1.6 -0.2
v 0.2 1.6 -0.2
v -0.2 1.6 -0.3
v 0.2 1.6 -0.3
v -0.3 0.1 0
v -0.1 0.1 0
v -0.3 0.1 -0.1
v -0.1 0.1 -0.1
v 0.1 0.1 -0.2
v 0.3 0.1 -0.2
v 0.1 0.1 -0.3
v 0.3 0.1 -0.3
v -0.3 0.4 0.2
v -0.1 0.4 0.2
v -0.3 0.4 0.1
v -0.1 0.4 0.1
v 0.1 0.4 -0.1
v 0.3 0.4 -0.1
v 0.1 0.4 -0.2
v 0.3 0.4 -0.2
v 0.3 1.2 0.2
v 0.5 1.2 0.2
v -0.3 1.2 0.1
v -0.1 1.2 0.1
v 0.1 1.2 0.1
v 0.3 1.2 0.1
v -0.5 1.2 0
v -0.3 1.2 0
v 0.3 1.2 0
v 0.5 1.2 0
v -0.3 1.2 -0.1
v -0.1 1.2 -0.1
v 0.1 1.2 -0.1
v 0.3 1.2 -0.1
v -0.5 1.2 -0.2
v -0.3 1.2 -0.2
v -0.2 1.7 -0.2
v 0.2 1.7 -0.2
v -0.2 1.7 -0.3
v 0.2 1.7 -0.3
v -0.2 1.8 0.2
v 0.2 1.8 0.2
v -0.2 1.8 -0.2
v 0.2 1.8 -0.2

# faces
f 3/2/1 2/2/1 1/2/1
f 4/2/1 2/2/1 3/2/1
f 5/3/1 4/3/1 3/3/1
f 6/3/1 4/3/1 5/3/1
f 9/5/1 8/5/1 7/5/1
f 10/5/1 8/5/1 9/5/1
f 11/5/1 9/5/1 7/5/1
f 12/5/1 9/5/1 11/5/1
f 13/4/1 12/4/1 11/4/1
f 14/4/1 12/4/1 13/4/1
f 15/4/1 12/4/1 14/4/1
f 17/4/1 15/4/1 14/4/1
f 17/4/1 16/4/1 15/4/1
f 18/4/1 16/4/1 17/4/1
f 19/4/1 17/4/1 14/4/1
f 20/4/1 17/4/1 19/4/1
f 21/3/1 20/3/1 19/3/1
f 22/3/1 21/3/1 19/3/1
f 23/3/1 21/3/1 22/3/1
f 26/2/1 25/2/1 24/2/1
f 27/2/1 25/2/1 26/2/1
f 29/1/1 27/1/1 26/1/1
f 29/1/1 28/1/1 27/1/1
f 30/1/1 28/1/1 29/1/1
f 31/1/1 29/1/1 26/1/1
f 32/1/1 29/1/1 31/1/1
f 35/2/1 34/2/1 33/2/1
f 36/2/1 34/2/1 35/2/1
f 39/5/1 38/5/1 37/5/1
f 40/5/1 38/5/1 39/5/1
f 41/5/1 39/5/1 37/5/1
f 42/5/1 39/5/1 41/5/1
f 44/4/1 42/4/1 41/4/1
f 45/4/1 42/4/1 44/4/1
f 46/4/1 42/4/1 45/4/1
f 47/4/1 44/4/1 43/4/1
f 47/4/1 45/4/1 44/4/1
f 48/4/1 45/4/1 47/4/1
f 51/2/1 50/2/1 49/2/1
f 52/2/1 51/2/1 49/2/1
f 53/2/1 51/2/1 52/2/1
f 54/3/1 53/3/1 52/3/1
f 55/3/1 53/3/1 54/3/1
f 56/2/2 57/2/2 58/2/2
f 58/2/2 57/2/2 59/2/2
f 59/2/2 57/2/2 60/2/2
f 59/3/2 60/3/2 61/3/2
f 61/3/2 60/3/2 62/3/2
f 63/5/2 64/5/2 65/5/2
f 65/5/2 64/5/2 66/5/2
f 63/5/2 65/5/2 67/5/2
f 67/5/2 65/5/2 68/5/2
f 67/4/2 68/4/2 69/4/2
f 69/4/2 68/4/2 70/4/2
f 70/4/2 68/4/2 71/4/2
f 70/4/2 71/4/2 73/4/2
f 71/4/2 72/4/2 73/4/2
f 73/4/2 72/4/2 74/4/2
f 75/2/2 76/2/2 77/2/2
f 77/2/2 76/2/2 78/2/2
f 79/2/2 80/2/2 81/2/2
f 81/2/2 80/2/2 82/2/2
f 81/1/2 82/1/2 84/1/2
f 82/1/2 83/1/2 84/1/2
f 84/1/2 83/1/2 85/1/2
f 81/1/2 84/1/2 86/1/2
f 86/1/2 84/1/2 87/1/2
f 88/5/2 89/5/2 90/5/2
f 90/5/2 89/5/2 91/5/2
f 88/5/2 90/5/2 92/5/2
f 92/5/2 90/5/2 93/5/2
f 92/4/2 93/4/2 95/4/2
f 95/4/2 93/4/2 96/4/2
f 96/4/2 93/4/2 97/4/2
f 94/4/2 95/4/2 98/4/2
f 95/4/2 96/4/2 98/4/2
f 98/4/2 96/4/2 99/4/2
f 99/4/2 96/4/2 100/4/2
f 100/4/2 96/4/2 101/4/2
f 100/3/2 101/3/2 102/3/2
f 102/3/2 101/3/2 103/3/2
f 103/3/2 101/3/2 104/3/2
f 105/2/2 106/2/2 107/2/2
f 107/2/2 106/2/2 108/2/2
f 107/3/2 108/3/2 109/3/2
f 109/3/2 108/3/2 110/3/2
f 117/5/3 112/5/3 111/5/3
f 118/4/3 113/4/3 112/4/3
f 118/5/3 112/5/3 117/5/3
f 119/4/3 113/4/3 118/4/3
f 120/2/3 115/2/3 114/2/3
f 121/1/3 116/1/3 115/1/3
f 121/2/3 115/2/3 120/2/3
f 122/1/3 116/1/3 121/1/3
f 126/2/3 124/2/3 123/2/3
f 127/3/3 125/3/3 124/3/3
f 127/2/3 124/2/3 126/2/3
f 128/3/3 125/3/3 127/3/3
f 132/4/3 130/4/3 129/4/3
f 133/4/3 130/4/3 132/4/3
f 134/3/3 131/3/3 130/3/3
f 137/4/3 130/4/3 133/4/3
f 138/3/3 134/3/3 130/3/3
f 138/2/3 135/2/3 134/2/3
f 139/2/3 135/2/3 138/2/3
f 140/4/3 137/4/3 136/4/3
f 141/4/3 130/4/3 137/4/3
f 141/4/3 137/4/3 140/4/3
f 142/3/3 138/3/3 130/3/3
f 142/4/3 130/4/3 141/4/3
f 143/3/3 138/3/3 142/3/3
f 144/3/3 138/3/3 143/3/3
f 148/2/3 146/2/3 145/2/3
f 149/2/3 146/2/3 148/2/3
f 150/3/3 147/3/3 146/3/3
f 150/2/3 146/2/3 149/2/3
f 151/3/3 147/3/3 150/3/3
f 155/5/3 153/5/3 152/5/3
f 156/4/3 154/4/3 153/4/3
f 156/5/3 153/5/3 155/5/3
f 157/4/3 154/4/3 156/4/3
f 158/5/4 159/5/4 161/5/4
f 159/4/4 160/4/4 162/4/4
f 161/5/4 159/5/4 162/5/4
f 162/4/4 160/4/4 163/4/4
f 164/2/4 165/2/4 168/2/4
f 165/2/4 166/2/4 168/2/4
f 166/3/4 167/3/4 169/3/4
f 168/2/4 166/2/4 169/2/4
f 169/3/4 167/3/4 170/3/4
f 171/5/4 172/5/4 178/5/4
f 178/5/4 172/5/4 179/5/4
f 173/4/4 174/4/4 180/4/4
f 174/4/4 175/4/4 180/4/4
f 180/4/4 175/4/4 181/4/4
f 176/3/4 177/3/4 182/3/4
f 175/3/4 176/3/4 182/3/4
f 181/4/4 175/4/4 185/4/4
f 182/2/4 183/2/4 186/2/4
f 175/3/4 182/3/4 186/3/4
f 186/2/4 183/2/4 187/2/4
f 184/4/4 185/4/4 188/4/4
f 185/4/4 175/4/4 189/4/4
f 188/4/4 185/4/4 189/4/4
f 175/3/4 186/3/4 189/3/4
f 189/3/4 186/3/4 190/3/4
f 191/2/4 192/2/4 194/2/4
f 192/3/4 193/3/4 195/3/4
f 194/2/4 192/2/4 195/2/4
f 195/3/4 193/3/4 196/3/4
f 197/2/4 198/2/4 204/2/4
f 204/2/4 198/2/4 205/2/4
f 199/1/4 200/1/4 206/1/4
f 206/1/4 200/1/4 207/1/4
f 201/5/4 202/5/4 208/5/4
f 202/4/4 203/4/4 209/4/4
f 208/5/4 202/5/4 209/5/4
f 209/4/4 203/4/4 210/4/4
f 211/1/4 212/1/4 215/1/4
f 215/1/4 212/1/4 216/1/4
f 213/5/4 214/5/4 217/5/4
f 217/5/4 214/5/4 218/5/4
f 223/5/5 220/5/5 219/5/5
f 224/5/5 220/5/5 223/5/5
f 225/5/5 222/5/5 221/5/5
f 226/5/5 222/5/5 225/5/5
f 231/4/5 228/4/5 227/4/5
f 232/4/5 228/4/5 231/4/5
f 233/4/5 230/4/5 229/4/5
f 234/4/5 230/4/5 233/4/5
f 239/2/5 236/2/5 235/2/5
f 242/2/5 236/2/5 239/2/5
f 243/2/5 236/2/5 242/2/5
f 244/2/5 241/2/5 240/2/5
f 245/4/5 238/4/5 237/4/5
f 246/4/5 238/4/5 245/4/5
f 247/2/5 244/2/5 240/2/5
f 248/2/5 244/2/5 247/2/5
f 251/2/5 250/2/5 249/2/5
f 252/2/5 250/2/5 251/2/5
f 253/2/5 251/2/5 249/2/5
f 254/2/5 250/2/5 252/2/5
f 255/2/5 253/2/5 249/2/5
f 255/2/5 254/2/5 253/2/5
f 256/2/5 250/2/5 254/2/5
f 256/2/5 254/2/5 255/2/5
f 259/1/5 258/1/5 257/1/5
f 260/1/5 258/1/5 259/1/5
f 261/5/6 262/5/6 263/5/6
f 263/5/6 262/5/6 264/5/6
f 265/5/6 266/5/6 267/5/6
f 267/5/6 266/5/6 268/5/6
f 269/4/6 270/4/6 271/4/6
f 271/4/6 270/4/6 272/4/6
f 273/4/6 274/4/6 275/4/6
f 275/4/6 274/4/6 276/4/6
f 277/3/6 278/3/6 282/3/6
f 279/3/6 280/3/6 284/3/6
f 281/3/6 282/3/6 285/3/6
f 282/3/6 278/3/6 285/3/6
f 285/3/6 278/3/6 286/3/6
f 283/3/6 284/3/6 287/3/6
f 284/3/6 280/3/6 287/3/6
f 287/3/6 280/3/6 288/3/6
f 281/3/6 285/3/6 289/3/6
f 289/3/6 285/3/6 290/3/6
f 283/3/6 287/3/6 291/3/6
f 291/3/6 287/3/6 292/3/6
f 293/1/6 294/1/6 295/1/6
f 295/1/6 294/1/6 296/1/6
f 297/1/6 298/1/6 299/1/6
f 299/1/6 298/1/6 300/1/6
