# MagicaVoxel @ Ephtracy

# group
o 

# material
mtllib Pedestrian02.mtl
usemtl palette

# normals
vn -1 0 0
vn 1 0 0
vn 0 0 1
vn 0 0 -1
vn 0 -1 0
vn 0 1 0

# texcoords
vt 0.662109 0.5
vt 0.970703 0.5
vt 0.974609 0.5
vt 0.978516 0.5
vt 0.982422 0.5

# verts
v -0.5 0.6 0.1
v -0.5 0.6 -0.1
v -0.5 1 0.1
v -0.5 1 -0.1
v -0.5 1.2 0.1
v -0.5 1.2 -0.1
v -0.3 0 0.1
v -0.3 0 -0.2
v -0.3 0.1 -0.1
v -0.3 0.1 -0.2
v -0.3 0.2 0.1
v -0.3 0.2 -0.1
v -0.3 0.6 0.1
v -0.3 0.6 -0.1
v -0.2 1.3 0.2
v -0.2 1.3 -0.2
v -0.2 1.6 0.2
v -0.2 1.6 -0.2
v -0.2 1.6 -0.3
v -0.2 1.7 -0.2
v -0.2 1.7 -0.3
v -0.2 1.8 0.2
v -0.2 1.8 -0.2
v -0.1 1.2 0.1
v -0.1 1.2 -0.1
v -0.1 1.3 0.1
v -0.1 1.3 -0.1
v 0.1 0 0.1
v 0.1 0 -0.2
v 0.1 0.1 -0.1
v 0.1 0.1 -0.2
v 0.1 0.2 0.1
v 0.1 0.2 -0.1
v 0.1 0.6 0.1
v 0.1 0.6 -0.1
v -0.1 0 0.1
v -0.1 0 -0.2
v -0.1 0.1 -0.1
v -0.1 0.1 -0.2
v -0.1 0.2 0.1
v -0.1 0.2 -0.1
v -0.1 0.6 0.1
v -0.1 0.6 -0.1
v 0.1 1.2 0.1
v 0.1 1.2 -0.1
v 0.1 1.3 0.1
v 0.1 1.3 -0.1
v 0.2 1.3 0.2
v 0.2 1.3 -0.2
v 0.2 1.6 0.2
v 0.2 1.6 -0.2
v 0.2 1.6 -0.3
v 0.2 1.7 -0.2
v 0.2 1.7 -0.3
v 0.2 1.8 0.2
v 0.2 1.8 -0.2
v 0.3 0 0.1
v 0.3 0 -0.2
v 0.3 0.1 -0.1
v 0.3 0.1 -0.2
v 0.3 0.2 0.1
v 0.3 0.2 -0.1
v 0.3 0.6 0.1
v 0.3 0.6 -0.1
v 0.5 0.6 0.1
v 0.5 0.6 -0.1
v 0.5 1 0.1
v 0.5 1 -0.1
v 0.5 1.2 0.1
v 0.5 1.2 -0.1
v -0.2 1.3 0.2
v -0.2 1.6 0.2
v -0.2 1.8 0.2
v 0.2 1.3 0.2
v 0.2 1.6 0.2
v 0.2 1.8 0.2
v -0.5 0.6 0.1
v -0.5 1 0.1
v -0.5 1.2 0.1
v -0.3 0 0.1
v -0.3 0.2 0.1
v -0.3 0.6 0.1
v -0.3 0.7 0.1
v -0.3 1 0.1
v -0.1 0 0.1
v -0.1 0.2 0.1
v -0.1 0.6 0.1
v -0.1 1.2 0.1
v -0.1 1.3 0.1
v 0.1 0 0.1
v 0.1 0.2 0.1
v 0.1 0.6 0.1
v 0.1 1.2 0.1
v 0.1 1.3 0.1
v 0.3 0 0.1
v 0.3 0.2 0.1
v 0.3 0.6 0.1
v 0.3 0.7 0.1
v 0.3 1 0.1
v 0.5 0.6 0.1
v 0.5 1 0.1
v 0.5 1.2 0.1
v -0.5 0.6 -0.1
v -0.5 1 -0.1
v -0.5 1.2 -0.1
v -0.3 0.1 -0.1
v -0.3 0.2 -0.1
v -0.3 0.6 -0.1
v -0.3 0.7 -0.1
v -0.3 1 -0.1
v -0.1 0.1 -0.1
v -0.1 0.2 -0.1
v -0.1 0.6 -0.1
v -0.1 1.2 -0.1
v -0.1 1.3 -0.1
v 0.1 0.1 -0.1
v 0.1 0.2 -0.1
v 0.1 0.6 -0.1
v 0.1 1.2 -0.1
v 0.1 1.3 -0.1
v 0.3 0.1 -0.1
v 0.3 0.2 -0.1
v 0.3 0.6 -0.1
v 0.3 0.7 -0.1
v 0.3 1 -0.1
v 0.5 0.6 -0.1
v 0.5 1 -0.1
v 0.5 1.2 -0.1
v -0.3 0 -0.2
v -0.3 0.1 -0.2
v -0.2 1.3 -0.2
v -0.2 1.6 -0.2
v -0.2 1.7 -0.2
v -0.2 1.8 -0.2
v -0.1 0 -0.2
v -0.1 0.1 -0.2
v 0.1 0 -0.2
v 0.1 0.1 -0.2
v 0.2 1.3 -0.2
v 0.2 1.6 -0.2
v 0.2 1.7 -0.2
v 0.2 1.8 -0.2
v 0.3 0 -0.2
v 0.3 0.1 -0.2
v -0.2 1.6 -0.3
v -0.2 1.7 -0.3
v 0.2 1.6 -0.3
v 0.2 1.7 -0.3
v -0.3 0 0.1
v -0.1 0 0.1
v 0.1 0 0.1
v 0.3 0 0.1
v -0.3 0 -0.2
v -0.1 0 -0.2
v 0.1 0 -0.2
v 0.3 0 -0.2
v -0.5 0.6 0.1
v -0.3 0.6 0.1
v -0.1 0.6 0.1
v 0.1 0.6 0.1
v 0.3 0.6 0.1
v 0.5 0.6 0.1
v -0.5 0.6 -0.1
v -0.3 0.6 -0.1
v -0.1 0.6 -0.1
v 0.1 0.6 -0.1
v 0.3 0.6 -0.1
v 0.5 0.6 -0.1
v -0.2 1.3 0.2
v 0.2 1.3 0.2
v -0.1 1.3 0.1
v 0.1 1.3 0.1
v -0.1 1.3 -0.1
v 0.1 1.3 -0.1
v -0.2 1.3 -0.2
v 0.2 1.3 -0.2
v -0.2 1.6 -0.2
v 0.2 1.6 -0.2
v -0.2 1.6 -0.3
v 0.2 1.6 -0.3
v -0.3 0.1 -0.1
v -0.1 0.1 -0.1
v 0.1 0.1 -0.1
v 0.3 0.1 -0.1
v -0.3 0.1 -0.2
v -0.1 0.1 -0.2
v 0.1 0.1 -0.2
v 0.3 0.1 -0.2
v -0.5 1.2 0.1
v -0.1 1.2 0.1
v 0.1 1.2 0.1
v 0.5 1.2 0.1
v -0.5 1.2 -0.1
v -0.1 1.2 -0.1
v 0.1 1.2 -0.1
v 0.5 1.2 -0.1
v -0.2 1.7 -0.2
v 0.2 1.7 -0.2
v -0.2 1.7 -0.3
v 0.2 1.7 -0.3
v -0.2 1.8 0.2
v 0.2 1.8 0.2
v -0.2 1.8 -0.2
v 0.2 1.8 -0.2

# faces
f 3/2/1 2/2/1 1/2/1
f 4/2/1 2/2/1 3/2/1
f 5/3/1 4/3/1 3/3/1
f 6/3/1 4/3/1 5/3/1
f 9/5/1 8/5/1 7/5/1
f 10/5/1 8/5/1 9/5/1
f 11/5/1 9/5/1 7/5/1
f 12/5/1 9/5/1 11/5/1
f 13/4/1 12/4/1 11/4/1
f 14/4/1 12/4/1 13/4/1
f 17/2/1 16/2/1 15/2/1
f 18/2/1 16/2/1 17/2/1
f 20/1/1 18/1/1 17/1/1
f 20/1/1 19/1/1 18/1/1
f 21/1/1 19/1/1 20/1/1
f 22/1/1 20/1/1 17/1/1
f 23/1/1 20/1/1 22/1/1
f 26/2/1 25/2/1 24/2/1
f 27/2/1 25/2/1 26/2/1
f 30/5/1 29/5/1 28/5/1
f 31/5/1 29/5/1 30/5/1
f 32/5/1 30/5/1 28/5/1
f 33/5/1 30/5/1 32/5/1
f 34/4/1 33/4/1 32/4/1
f 35/4/1 33/4/1 34/4/1
f 36/5/2 37/5/2 38/5/2
f 38/5/2 37/5/2 39/5/2
f 36/5/2 38/5/2 40/5/2
f 40/5/2 38/5/2 41/5/2
f 40/4/2 41/4/2 42/4/2
f 42/4/2 41/4/2 43/4/2
f 44/2/2 45/2/2 46/2/2
f 46/2/2 45/2/2 47/2/2
f 48/2/2 49/2/2 50/2/2
f 50/2/2 49/2/2 51/2/2
f 50/1/2 51/1/2 53/1/2
f 51/1/2 52/1/2 53/1/2
f 53/1/2 52/1/2 54/1/2
f 50/1/2 53/1/2 55/1/2
f 55/1/2 53/1/2 56/1/2
f 57/5/2 58/5/2 59/5/2
f 59/5/2 58/5/2 60/5/2
f 57/5/2 59/5/2 61/5/2
f 61/5/2 59/5/2 62/5/2
f 61/4/2 62/4/2 63/4/2
f 63/4/2 62/4/2 64/4/2
f 65/2/2 66/2/2 67/2/2
f 67/2/2 66/2/2 68/2/2
f 67/3/2 68/3/2 69/3/2
f 69/3/2 68/3/2 70/3/2
f 74/2/3 72/2/3 71/2/3
f 75/1/3 73/1/3 72/1/3
f 75/2/3 72/2/3 74/2/3
f 76/1/3 73/1/3 75/1/3
f 82/2/3 78/2/3 77/2/3
f 83/2/3 78/2/3 82/2/3
f 84/3/3 79/3/3 78/3/3
f 84/2/3 78/2/3 83/2/3
f 85/5/3 81/5/3 80/5/3
f 86/4/3 83/4/3 82/4/3
f 86/5/3 81/5/3 85/5/3
f 86/4/3 82/4/3 81/4/3
f 87/4/3 83/4/3 86/4/3
f 88/3/3 79/3/3 84/3/3
f 88/3/3 84/3/3 83/3/3
f 92/4/3 83/4/3 87/4/3
f 93/2/3 89/2/3 88/2/3
f 93/3/3 88/3/3 83/3/3
f 94/2/3 89/2/3 93/2/3
f 95/5/3 91/5/3 90/5/3
f 96/4/3 92/4/3 91/4/3
f 96/5/3 91/5/3 95/5/3
f 97/4/3 83/4/3 92/4/3
f 97/4/3 92/4/3 96/4/3
f 98/3/3 93/3/3 83/3/3
f 98/4/3 83/4/3 97/4/3
f 99/3/3 93/3/3 98/3/3
f 100/2/3 99/2/3 98/2/3
f 100/2/3 98/2/3 97/2/3
f 101/3/3 93/3/3 99/3/3
f 101/2/3 99/2/3 100/2/3
f 102/3/3 93/3/3 101/3/3
f 103/2/4 104/2/4 108/2/4
f 108/2/4 104/2/4 109/2/4
f 104/3/4 105/3/4 110/3/4
f 109/2/4 104/2/4 110/2/4
f 106/5/4 107/5/4 111/5/4
f 108/4/4 109/4/4 112/4/4
f 111/5/4 107/5/4 112/5/4
f 107/4/4 108/4/4 112/4/4
f 112/4/4 109/4/4 113/4/4
f 110/3/4 105/3/4 114/3/4
f 109/3/4 110/3/4 114/3/4
f 113/4/4 109/4/4 118/4/4
f 114/2/4 115/2/4 119/2/4
f 109/3/4 114/3/4 119/3/4
f 119/2/4 115/2/4 120/2/4
f 116/5/4 117/5/4 121/5/4
f 117/4/4 118/4/4 122/4/4
f 121/5/4 117/5/4 122/5/4
f 118/4/4 109/4/4 123/4/4
f 122/4/4 118/4/4 123/4/4
f 109/3/4 119/3/4 124/3/4
f 123/4/4 109/4/4 124/4/4
f 124/3/4 119/3/4 125/3/4
f 124/2/4 125/2/4 126/2/4
f 123/2/4 124/2/4 126/2/4
f 125/3/4 119/3/4 127/3/4
f 126/2/4 125/2/4 127/2/4
f 127/3/4 119/3/4 128/3/4
f 129/5/4 130/5/4 135/5/4
f 135/5/4 130/5/4 136/5/4
f 131/2/4 132/2/4 139/2/4
f 139/2/4 132/2/4 140/2/4
f 133/1/4 134/1/4 141/1/4
f 141/1/4 134/1/4 142/1/4
f 137/5/4 138/5/4 143/5/4
f 143/5/4 138/5/4 144/5/4
f 145/1/4 146/1/4 147/1/4
f 147/1/4 146/1/4 148/1/4
f 153/5/5 150/5/5 149/5/5
f 154/5/5 150/5/5 153/5/5
f 155/5/5 152/5/5 151/5/5
f 156/5/5 152/5/5 155/5/5
f 163/2/5 158/2/5 157/2/5
f 164/2/5 158/2/5 163/2/5
f 165/4/5 160/4/5 159/4/5
f 166/4/5 160/4/5 165/4/5
f 167/2/5 162/2/5 161/2/5
f 168/2/5 162/2/5 167/2/5
f 171/2/5 170/2/5 169/2/5
f 172/2/5 170/2/5 171/2/5
f 173/2/5 171/2/5 169/2/5
f 174/2/5 170/2/5 172/2/5
f 175/2/5 173/2/5 169/2/5
f 175/2/5 174/2/5 173/2/5
f 176/2/5 170/2/5 174/2/5
f 176/2/5 174/2/5 175/2/5
f 179/1/5 178/1/5 177/1/5
f 180/1/5 178/1/5 179/1/5
f 181/5/6 182/5/6 185/5/6
f 185/5/6 182/5/6 186/5/6
f 183/5/6 184/5/6 187/5/6
f 187/5/6 184/5/6 188/5/6
f 189/3/6 190/3/6 193/3/6
f 193/3/6 190/3/6 194/3/6
f 191/3/6 192/3/6 195/3/6
f 195/3/6 192/3/6 196/3/6
f 197/1/6 198/1/6 199/1/6
f 199/1/6 198/1/6 200/1/6
f 201/1/6 202/1/6 203/1/6
f 203/1/6 202/1/6 204/1/6
