# MagicaVoxel @ Ephtracy

# group
o 

# material
mtllib Fence.mtl
usemtl palette

# normals
vn -1 0 0
vn 1 0 0
vn 0 0 1
vn 0 0 -1
vn 0 -1 0
vn 0 1 0

# texcoords
vt 0.873047 0.5
vt 0.904297 0.5
vt 0.935547 0.5

# verts
v -0.3 0 3.5
v -0.3 0 -3.5
v -0.3 0.2 3.5
v -0.3 0.2 -3.5
v -0.3 3.5 3.5
v -0.3 3.5 -3.5
v -0.3 3.7 3.5
v -0.3 3.7 -3.5
v -0.3 4 3.5
v -0.3 4 -3.5
v -0.2 0.2 3.5
v -0.2 0.2 -3.5
v -0.2 0.7 3.5
v -0.2 0.7 -3.5
v -0.2 3.4 3.5
v -0.2 3.4 -3.5
v -0.2 3.5 3.5
v -0.2 3.5 -3.5
v 0.2 0.2 3.5
v 0.2 0.2 -3.5
v 0.2 0.7 3.5
v 0.2 0.7 -3.5
v 0.2 3.4 3.5
v 0.2 3.4 -3.5
v 0.2 3.5 3.5
v 0.2 3.5 -3.5
v 0.3 0 3.5
v 0.3 0 -3.5
v 0.3 0.2 3.5
v 0.3 0.2 -3.5
v 0.3 3.5 3.5
v 0.3 3.5 -3.5
v 0.3 3.7 3.5
v 0.3 3.7 -3.5
v 0.3 4 3.5
v 0.3 4 -3.5
v -0.3 0 3.5
v -0.3 0.2 3.5
v -0.3 3.5 3.5
v -0.3 3.7 3.5
v -0.3 4 3.5
v -0.2 0.2 3.5
v -0.2 0.7 3.5
v -0.2 3.4 3.5
v -0.2 3.5 3.5
v -0.1 3.4 3.5
v -0.1 3.5 3.5
v 0.1 3.4 3.5
v 0.1 3.5 3.5
v 0.2 0.2 3.5
v 0.2 0.7 3.5
v 0.2 3.4 3.5
v 0.2 3.5 3.5
v 0.3 0 3.5
v 0.3 0.2 3.5
v 0.3 3.5 3.5
v 0.3 3.7 3.5
v 0.3 4 3.5
v -0.3 0 -3.5
v -0.3 0.2 -3.5
v -0.3 3.5 -3.5
v -0.3 3.7 -3.5
v -0.3 4 -3.5
v -0.2 0.2 -3.5
v -0.2 0.7 -3.5
v -0.2 3.4 -3.5
v -0.2 3.5 -3.5
v -0.1 3.4 -3.5
v -0.1 3.5 -3.5
v 0.1 3.4 -3.5
v 0.1 3.5 -3.5
v 0.2 0.2 -3.5
v 0.2 0.7 -3.5
v 0.2 3.4 -3.5
v 0.2 3.5 -3.5
v 0.3 0 -3.5
v 0.3 0.2 -3.5
v 0.3 3.5 -3.5
v 0.3 3.7 -3.5
v 0.3 4 -3.5
v -0.3 0 3.5
v 0.3 0 3.5
v -0.3 0 -3.5
v 0.3 0 -3.5
v -0.3 3.5 3.5
v -0.2 3.5 3.5
v 0.2 3.5 3.5
v 0.3 3.5 3.5
v -0.3 3.5 -3.5
v -0.2 3.5 -3.5
v 0.2 3.5 -3.5
v 0.3 3.5 -3.5
v -0.3 0.2 3.5
v -0.2 0.2 3.5
v 0.2 0.2 3.5
v 0.3 0.2 3.5
v -0.3 0.2 -3.5
v -0.2 0.2 -3.5
v 0.2 0.2 -3.5
v 0.3 0.2 -3.5
v -0.3 4 3.5
v 0.3 4 3.5
v -0.3 4 -3.5
v 0.3 4 -3.5

# faces
f 3/2/1 2/2/1 1/2/1
f 4/2/1 2/2/1 3/2/1
f 7/2/1 6/2/1 5/2/1
f 8/2/1 6/2/1 7/2/1
f 9/3/1 8/3/1 7/3/1
f 10/3/1 8/3/1 9/3/1
f 13/1/1 12/1/1 11/1/1
f 14/1/1 12/1/1 13/1/1
f 15/2/1 14/2/1 13/2/1
f 16/2/1 14/2/1 15/2/1
f 17/1/1 16/1/1 15/1/1
f 18/1/1 16/1/1 17/1/1
f 19/1/2 20/1/2 21/1/2
f 21/1/2 20/1/2 22/1/2
f 21/2/2 22/2/2 23/2/2
f 23/2/2 22/2/2 24/2/2
f 23/1/2 24/1/2 25/1/2
f 25/1/2 24/1/2 26/1/2
f 27/2/2 28/2/2 29/2/2
f 29/2/2 28/2/2 30/2/2
f 31/2/2 32/2/2 33/2/2
f 33/2/2 32/2/2 34/2/2
f 33/3/2 34/3/2 35/3/2
f 35/3/2 34/3/2 36/3/2
f 42/2/3 38/2/3 37/2/3
f 45/2/3 40/2/3 39/2/3
f 46/2/3 44/2/3 43/2/3
f 46/1/3 45/1/3 44/1/3
f 47/2/3 40/2/3 45/2/3
f 47/1/3 45/1/3 46/1/3
f 48/2/3 46/2/3 43/2/3
f 48/2/3 47/2/3 46/2/3
f 49/2/3 40/2/3 47/2/3
f 49/2/3 47/2/3 48/2/3
f 50/2/3 42/2/3 37/2/3
f 50/1/3 43/1/3 42/1/3
f 51/2/3 48/2/3 43/2/3
f 51/1/3 43/1/3 50/1/3
f 52/1/3 49/1/3 48/1/3
f 52/2/3 48/2/3 51/2/3
f 53/2/3 40/2/3 49/2/3
f 53/1/3 49/1/3 52/1/3
f 54/2/3 50/2/3 37/2/3
f 55/2/3 50/2/3 54/2/3
f 56/2/3 40/2/3 53/2/3
f 57/3/3 41/3/3 40/3/3
f 57/2/3 40/2/3 56/2/3
f 58/3/3 41/3/3 57/3/3
f 59/2/4 60/2/4 64/2/4
f 61/2/4 62/2/4 67/2/4
f 65/2/4 66/2/4 68/2/4
f 66/1/4 67/1/4 68/1/4
f 67/2/4 62/2/4 69/2/4
f 68/1/4 67/1/4 69/1/4
f 65/2/4 68/2/4 70/2/4
f 68/2/4 69/2/4 70/2/4
f 69/2/4 62/2/4 71/2/4
f 70/2/4 69/2/4 71/2/4
f 59/2/4 64/2/4 72/2/4
f 64/1/4 65/1/4 72/1/4
f 65/2/4 70/2/4 73/2/4
f 72/1/4 65/1/4 73/1/4
f 70/1/4 71/1/4 74/1/4
f 73/2/4 70/2/4 74/2/4
f 71/2/4 62/2/4 75/2/4
f 74/1/4 71/1/4 75/1/4
f 59/2/4 72/2/4 76/2/4
f 76/2/4 72/2/4 77/2/4
f 75/2/4 62/2/4 78/2/4
f 62/3/4 63/3/4 79/3/4
f 78/2/4 62/2/4 79/2/4
f 79/3/4 63/3/4 80/3/4
f 83/2/5 82/2/5 81/2/5
f 84/2/5 82/2/5 83/2/5
f 89/2/5 86/2/5 85/2/5
f 90/2/5 86/2/5 89/2/5
f 91/2/5 88/2/5 87/2/5
f 92/2/5 88/2/5 91/2/5
f 93/2/6 94/2/6 97/2/6
f 97/2/6 94/2/6 98/2/6
f 95/2/6 96/2/6 99/2/6
f 99/2/6 96/2/6 100/2/6
f 101/3/6 102/3/6 103/3/6
f 103/3/6 102/3/6 104/3/6
