# MagicaVoxel @ Ephtracy

# group
o 

# material
mtllib Shop01.mtl
usemtl palette

# normals
vn -1 0 0
vn 1 0 0
vn 0 0 1
vn 0 0 -1
vn 0 -1 0
vn 0 1 0

# texcoords
vt 0.576172 0.5
vt 0.666016 0.5
vt 0.724609 0.5
vt 0.791016 0.5
vt 0.822266 0.5
vt 0.826172 0.5
vt 0.873047 0.5
vt 0.916016 0.5
vt 0.966797 0.5
vt 0.978516 0.5

# verts
v -4.7 0 4.7
v -4.7 0 4.3
v -4.7 0 -4.3
v -4.7 0 -4.7
v -4.7 8 4.3
v -4.7 8 -4.3
v -4.7 9.4 4.7
v -4.7 9.4 -4.7
v -4.6 0 4.3
v -4.6 0 -4.3
v -4.6 8 4.3
v -4.6 8 -4.3
v -3.1 4.4 4.8
v -3.1 4.4 4.7
v -3.1 6.6 4.8
v -3.1 6.6 4.7
v -2.6 4.8 4.7
v -2.6 4.8 4.6
v -2.6 6.2 4.7
v -2.6 6.2 4.6
v -2 0 4.7
v -2 0 4.6
v -2 3.9 4.7
v -2 3.9 4.6
v -1.9 3.9 4.8
v -1.9 3.9 4.7
v -1.9 3.9 4.6
v -1.9 4 5.4
v -1.9 4 5.2
v -1.9 4.1 5.4
v -1.9 4.1 5.3
v -1.9 4.1 5.2
v -1.9 4.1 5
v -1.9 4.1 4.9
v -1.9 4.2 5.3
v -1.9 4.2 5
v -1.9 4.2 4.9
v -1.9 4.2 4.8
v -1.9 4.2 4.6
v -1.9 4.3 5
v -1.9 4.3 4.6
v 1.3 4.1 4.8
v 1.3 4.1 4.6
v 1.3 4.2 4.8
v 1.3 4.2 4.6
v 1.8 3.9 4.8
v 1.8 3.9 4.7
v 1.8 3.9 4.6
v 1.8 4.1 4.8
v 1.8 4.1 4.6
v 1.8 4.8 4.7
v 1.8 4.8 4.6
v 1.8 5 4.7
v 1.8 5.5 4.7
v 1.8 6.2 4.7
v 1.8 6.2 4.6
v 4.3 0 4.7
v 4.3 0 4.6
v 4.3 0 -4.6
v 4.3 0 -4.7
v 4.3 8 4.7
v 4.3 8 4.6
v 4.3 8 -4.6
v 4.3 8 -4.7
v 4.5 8.5 4.5
v 4.5 8.5 -4.5
v 4.5 9.4 4.5
v 4.5 9.4 -4.5
v -4.5 8.5 4.5
v -4.5 8.5 -4.5
v -4.5 9.4 4.5
v -4.5 9.4 -4.5
v -4.3 0 4.7
v -4.3 0 4.6
v -4.3 0 -4.6
v -4.3 0 -4.7
v -4.3 8 4.7
v -4.3 8 4.6
v -4.3 8 -4.6
v -4.3 8 -4.7
v -1.8 3.9 4.8
v -1.8 3.9 4.7
v -1.8 3.9 4.6
v -1.8 4.1 4.8
v -1.8 4.1 4.6
v -1.8 4.8 4.7
v -1.8 4.8 4.6
v -1.8 5 4.7
v -1.8 5.5 4.7
v -1.8 6.2 4.7
v -1.8 6.2 4.6
v -1.3 4.1 4.8
v -1.3 4.1 4.6
v -1.3 4.2 4.8
v -1.3 4.2 4.6
v 1.9 3.9 4.8
v 1.9 3.9 4.7
v 1.9 3.9 4.6
v 1.9 4 5.4
v 1.9 4 5.2
v 1.9 4.1 5.4
v 1.9 4.1 5.3
v 1.9 4.1 5.2
v 1.9 4.1 5
v 1.9 4.1 4.9
v 1.9 4.2 5.3
v 1.9 4.2 5
v 1.9 4.2 4.9
v 1.9 4.2 4.8
v 1.9 4.2 4.6
v 1.9 4.3 5
v 1.9 4.3 4.6
v 2 0 4.7
v 2 0 4.6
v 2 3.9 4.7
v 2 3.9 4.6
v 2.6 4.8 4.7
v 2.6 4.8 4.6
v 2.6 6.2 4.7
v 2.6 6.2 4.6
v 3.1 4.4 4.8
v 3.1 4.4 4.7
v 3.1 6.6 4.8
v 3.1 6.6 4.7
v 4.6 0 4.3
v 4.6 0 -4.3
v 4.6 8 4.3
v 4.6 8 -4.3
v 4.7 0 4.7
v 4.7 0 4.3
v 4.7 0 -4.3
v 4.7 0 -4.7
v 4.7 8 4.3
v 4.7 8 -4.3
v 4.7 9.4 4.7
v 4.7 9.4 -4.7
v -1.9 4 5.4
v -1.9 4.1 5.4
v 1.9 4 5.4
v 1.9 4.1 5.4
v -1.9 4.1 5.3
v -1.9 4.2 5.3
v 1.9 4.1 5.3
v 1.9 4.2 5.3
v -1.9 4.2 5
v -1.9 4.3 5
v 1.9 4.2 5
v 1.9 4.3 5
v -3.1 4.4 4.8
v -3.1 6.6 4.8
v -3 4.5 4.8
v -3 6.5 4.8
v -2.2 5.4 4.8
v -2.2 6 4.8
v -1.9 3.9 4.8
v -1.9 4.2 4.8
v -1.9 5 4.8
v -1.9 5.4 4.8
v -1.9 5.5 4.8
v -1.9 6 4.8
v -1.8 3.9 4.8
v -1.8 4.1 4.8
v -1.4 5.1 4.8
v -1.4 5.5 4.8
v -1.3 4.1 4.8
v -1.3 4.2 4.8
v -1.3 5 4.8
v -1.3 5.1 4.8
v -1.3 5.4 4.8
v -1.3 5.7 4.8
v -1 5.4 4.8
v -1 5.7 4.8
v -0.7 5.6 4.8
v -0.7 5.9 4.8
v -0.3 5.6 4.8
v -0.3 5.9 4.8
v -0.2 4.9 4.8
v -0.2 5.4 4.8
v 0.2 4.9 4.8
v 0.2 5.4 4.8
v 0.3 5.6 4.8
v 0.3 5.9 4.8
v 0.7 5.6 4.8
v 0.7 5.9 4.8
v 1 5.4 4.8
v 1 5.7 4.8
v 1.3 4.1 4.8
v 1.3 4.2 4.8
v 1.3 5 4.8
v 1.3 5.1 4.8
v 1.3 5.4 4.8
v 1.3 5.7 4.8
v 1.4 5.1 4.8
v 1.4 5.5 4.8
v 1.8 3.9 4.8
v 1.8 4.1 4.8
v 1.9 3.9 4.8
v 1.9 4.2 4.8
v 1.9 5 4.8
v 1.9 5.4 4.8
v 1.9 5.5 4.8
v 1.9 6 4.8
v 2.2 5.4 4.8
v 2.2 6 4.8
v 3 4.5 4.8
v 3 6.5 4.8
v 3.1 4.4 4.8
v 3.1 6.6 4.8
v -4.7 0 4.7
v -4.7 9.4 4.7
v -4.3 0 4.7
v -4.3 8 4.7
v -2 0 4.7
v -2 3.9 4.7
v -1.9 3.9 4.7
v -1.8 3.9 4.7
v -1.7 0 4.7
v -1.7 3.8 4.7
v -0.0999999 0 4.7
v -0.0999999 3.8 4.7
v 0.0999999 0 4.7
v 0.0999999 3.8 4.7
v 1.7 0 4.7
v 1.7 3.8 4.7
v 1.8 3.9 4.7
v 1.9 3.9 4.7
v 2 0 4.7
v 2 3.9 4.7
v 4.3 0 4.7
v 4.3 8 4.7
v 4.7 0 4.7
v 4.7 9.4 4.7
v -4.3 0 4.6
v -4.3 8 4.6
v -2.6 4.8 4.6
v -2.6 6.2 4.6
v -2 0 4.6
v -2 3.9 4.6
v -1.9 3.9 4.6
v -1.9 4.2 4.6
v -1.9 4.3 4.6
v -1.8 3.9 4.6
v -1.8 4.1 4.6
v -1.8 4.8 4.6
v -1.8 6.2 4.6
v -1.3 4.1 4.6
v -1.3 4.2 4.6
v 1.3 4.1 4.6
v 1.3 4.2 4.6
v 1.8 3.9 4.6
v 1.8 4.1 4.6
v 1.8 4.8 4.6
v 1.8 6.2 4.6
v 1.9 3.9 4.6
v 1.9 4.2 4.6
v 1.9 4.3 4.6
v 2 0 4.6
v 2 3.9 4.6
v 2.6 4.8 4.6
v 2.6 6.2 4.6
v 4.3 0 4.6
v 4.3 8 4.6
v -4.7 0 -4.3
v -4.7 8 -4.3
v -4.6 0 -4.3
v -4.6 8 -4.3
v 4.6 0 -4.3
v 4.6 8 -4.3
v 4.7 0 -4.3
v 4.7 8 -4.3
v -4.5 8.5 -4.5
v -4.5 9.4 -4.5
v 4.5 8.5 -4.5
v 4.5 9.4 -4.5
v -1.9 4 5.2
v -1.9 4.1 5.2
v 1.9 4 5.2
v 1.9 4.1 5.2
v -1.9 4.1 4.9
v -1.9 4.2 4.9
v 1.9 4.1 4.9
v 1.9 4.2 4.9
v -3.1 4.4 4.7
v -3.1 6.6 4.7
v -3 4.5 4.7
v -3 6.5 4.7
v -2.6 4.8 4.7
v -2.6 6.2 4.7
v -1.8 4.8 4.7
v -1.8 5 4.7
v -1.8 5.5 4.7
v -1.8 6.2 4.7
v -1.4 5.1 4.7
v -1.4 5.5 4.7
v -1.3 5 4.7
v -1.3 5.1 4.7
v -1.3 5.4 4.7
v -1.3 5.7 4.7
v -1 5.4 4.7
v -1 5.7 4.7
v -0.7 5.6 4.7
v -0.7 5.9 4.7
v -0.3 5.6 4.7
v -0.3 5.9 4.7
v -0.2 4.9 4.7
v -0.2 5.4 4.7
v 0.2 4.9 4.7
v 0.2 5.4 4.7
v 0.3 5.6 4.7
v 0.3 5.9 4.7
v 0.7 5.6 4.7
v 0.7 5.9 4.7
v 1 5.4 4.7
v 1 5.7 4.7
v 1.3 5 4.7
v 1.3 5.1 4.7
v 1.3 5.4 4.7
v 1.3 5.7 4.7
v 1.4 5.1 4.7
v 1.4 5.5 4.7
v 1.8 4.8 4.7
v 1.8 5 4.7
v 1.8 5.5 4.7
v 1.8 6.2 4.7
v 2.6 4.8 4.7
v 2.6 6.2 4.7
v 3 4.5 4.7
v 3 6.5 4.7
v 3.1 4.4 4.7
v 3.1 6.6 4.7
v -4.5 8.5 4.5
v -4.5 9.4 4.5
v 4.5 8.5 4.5
v 4.5 9.4 4.5
v -4.7 0 4.3
v -4.7 8 4.3
v -4.6 0 4.3
v -4.6 8 4.3
v 4.6 0 4.3
v 4.6 8 4.3
v 4.7 0 4.3
v 4.7 8 4.3
v -4.3 0 -4.6
v -4.3 8 -4.6
v 4.3 0 -4.6
v 4.3 8 -4.6
v -4.7 0 -4.7
v -4.7 9.4 -4.7
v -4.3 0 -4.7
v -4.3 8 -4.7
v 4.3 0 -4.7
v 4.3 8 -4.7
v 4.7 0 -4.7
v 4.7 9.4 -4.7
v -4.7 0 4.7
v -4.3 0 4.7
v -2 0 4.7
v -1.7 0 4.7
v -0.0999999 0 4.7
v 0.0999999 0 4.7
v 1.7 0 4.7
v 2 0 4.7
v 4.3 0 4.7
v 4.7 0 4.7
v -4.6 0 4.6
v -4.3 0 4.6
v -2 0 4.6
v -1.7 0 4.6
v -0.0999999 0 4.6
v 0.0999999 0 4.6
v 1.7 0 4.6
v 2 0 4.6
v 4.3 0 4.6
v 4.6 0 4.6
v -1.7 0 4.5
v 1.7 0 4.5
v -4.7 0 4.3
v -4.6 0 4.3
v 4.6 0 4.3
v 4.7 0 4.3
v -4.7 0 -4.3
v -4.6 0 -4.3
v 4.6 0 -4.3
v 4.7 0 -4.3
v -4.6 0 -4.6
v -4.3 0 -4.6
v 4.3 0 -4.6
v 4.6 0 -4.6
v -4.7 0 -4.7
v -4.3 0 -4.7
v 4.3 0 -4.7
v 4.7 0 -4.7
v -1.9 3.9 4.8
v -1.8 3.9 4.8
v 1.8 3.9 4.8
v 1.9 3.9 4.8
v -1.9 3.9 4.7
v -1.8 3.9 4.7
v 1.8 3.9 4.7
v 1.9 3.9 4.7
v -1.9 4 5.4
v 1.9 4 5.4
v -1.9 4 5.2
v 1.9 4 5.2
v -1.9 4.1 5.2
v 1.9 4.1 5.2
v -1.9 4.1 5
v 1.9 4.1 5
v -1.9 4.1 4.9
v 1.9 4.1 4.9
v -1.8 4.1 4.8
v -1.3 4.1 4.8
v 1.3 4.1 4.8
v 1.8 4.1 4.8
v -1.8 4.1 4.6
v -1.3 4.1 4.6
v 1.3 4.1 4.6
v 1.8 4.1 4.6
v -1.9 4.2 4.9
v 1.9 4.2 4.9
v -1.9 4.2 4.8
v -1.3 4.2 4.8
v 1.3 4.2 4.8
v 1.9 4.2 4.8
v -1.3 4.2 4.6
v 1.3 4.2 4.6
v -3.1 4.4 4.8
v 3.1 4.4 4.8
v -3.1 4.4 4.7
v 3.1 4.4 4.7
v -2.6 4.8 4.7
v -1.8 4.8 4.7
v 1.8 4.8 4.7
v 2.6 4.8 4.7
v -2.6 4.8 4.6
v -1.8 4.8 4.6
v 1.8 4.8 4.6
v 2.6 4.8 4.6
v -4.3 8 4.7
v 4.3 8 4.7
v -4.3 8 4.6
v 4.3 8 4.6
v -4.7 8 4.3
v -4.6 8 4.3
v 4.6 8 4.3
v 4.7 8 4.3
v -4.7 8 -4.3
v -4.6 8 -4.3
v 4.6 8 -4.3
v 4.7 8 -4.3
v -4.3 8 -4.6
v 4.3 8 -4.6
v -4.3 8 -4.7
v 4.3 8 -4.7
v -2 3.9 4.7
v -1.9 3.9 4.7
v -1.8 3.9 4.7
v 1.8 3.9 4.7
v 1.9 3.9 4.7
v 2 3.9 4.7
v -2 3.9 4.6
v -1.9 3.9 4.6
v -1.8 3.9 4.6
v 1.8 3.9 4.6
v 1.9 3.9 4.6
v 2 3.9 4.6
v -1.9 4.1 5.4
v 1.9 4.1 5.4
v -1.9 4.1 5.3
v 1.9 4.1 5.3
v -1.9 4.2 5.3
v 1.9 4.2 5.3
v -1.9 4.2 5
v 1.9 4.2 5
v -1.9 4.3 5
v 1.9 4.3 5
v -1.9 4.3 4.6
v 1.9 4.3 4.6
v -2.6 6.2 4.7
v -1.8 6.2 4.7
v 1.8 6.2 4.7
v 2.6 6.2 4.7
v -2.6 6.2 4.6
v -1.8 6.2 4.6
v 1.8 6.2 4.6
v 2.6 6.2 4.6
v -3.1 6.6 4.8
v 3.1 6.6 4.8
v -3.1 6.6 4.7
v 3.1 6.6 4.7
v -4.5 8.5 4.5
v 4.5 8.5 4.5
v -4.5 8.5 -4.5
v 4.5 8.5 -4.5
v -4.7 9.4 4.7
v 4.7 9.4 4.7
v -4.5 9.4 4.5
v 4.5 9.4 4.5
v -4.5 9.4 -4.5
v 4.5 9.4 -4.5
v -4.7 9.4 -4.7
v 4.7 9.4 -4.7

# faces
f 5/4/1 2/4/1 1/4/1
f 6/4/1 4/4/1 3/4/1
f 7/4/1 5/4/1 1/4/1
f 7/4/1 6/4/1 5/4/1
f 8/4/1 4/4/1 6/4/1
f 8/4/1 6/4/1 7/4/1
f 11/8/1 10/8/1 9/8/1
f 12/8/1 10/8/1 11/8/1
f 15/2/1 14/2/1 13/2/1
f 16/2/1 14/2/1 15/2/1
f 19/7/1 18/7/1 17/7/1
f 20/7/1 18/7/1 19/7/1
f 23/9/1 22/9/1 21/9/1
f 24/9/1 22/9/1 23/9/1
f 30/5/1 29/5/1 28/5/1
f 31/5/1 29/5/1 30/5/1
f 32/5/1 29/5/1 31/5/1
f 35/5/1 32/5/1 31/5/1
f 35/5/1 33/5/1 32/5/1
f 36/10/1 34/10/1 33/10/1
f 36/5/1 33/5/1 35/5/1
f 37/10/1 34/10/1 36/10/1
f 38/5/1 26/5/1 25/5/1
f 38/5/1 27/5/1 26/5/1
f 39/5/1 27/5/1 38/5/1
f 40/10/1 37/10/1 36/10/1
f 40/10/1 39/10/1 38/10/1
f 40/10/1 38/10/1 37/10/1
f 41/10/1 39/10/1 40/10/1
f 44/5/1 43/5/1 42/5/1
f 45/5/1 43/5/1 44/5/1
f 49/5/1 47/5/1 46/5/1
f 49/5/1 48/5/1 47/5/1
f 50/5/1 48/5/1 49/5/1
f 53/7/1 52/7/1 51/7/1
f 54/7/1 52/7/1 53/7/1
f 55/7/1 52/7/1 54/7/1
f 56/7/1 52/7/1 55/7/1
f 61/4/1 58/4/1 57/4/1
f 62/4/1 58/4/1 61/4/1
f 63/4/1 60/4/1 59/4/1
f 64/4/1 60/4/1 63/4/1
f 67/4/1 66/4/1 65/4/1
f 68/4/1 66/4/1 67/4/1
f 69/4/2 70/4/2 71/4/2
f 71/4/2 70/4/2 72/4/2
f 73/4/2 74/4/2 77/4/2
f 77/4/2 74/4/2 78/4/2
f 75/4/2 76/4/2 79/4/2
f 79/4/2 76/4/2 80/4/2
f 81/5/2 82/5/2 84/5/2
f 82/5/2 83/5/2 84/5/2
f 84/5/2 83/5/2 85/5/2
f 86/7/2 87/7/2 88/7/2
f 88/7/2 87/7/2 89/7/2
f 89/7/2 87/7/2 90/7/2
f 90/7/2 87/7/2 91/7/2
f 92/5/2 93/5/2 94/5/2
f 94/5/2 93/5/2 95/5/2
f 99/5/2 100/5/2 101/5/2
f 101/5/2 100/5/2 102/5/2
f 102/5/2 100/5/2 103/5/2
f 102/5/2 103/5/2 106/5/2
f 103/5/2 104/5/2 106/5/2
f 104/10/2 105/10/2 107/10/2
f 106/5/2 104/5/2 107/5/2
f 107/10/2 105/10/2 108/10/2
f 96/5/2 97/5/2 109/5/2
f 97/5/2 98/5/2 109/5/2
f 109/5/2 98/5/2 110/5/2
f 107/10/2 108/10/2 111/10/2
f 109/10/2 110/10/2 111/10/2
f 108/10/2 109/10/2 111/10/2
f 111/10/2 110/10/2 112/10/2
f 113/9/2 114/9/2 115/9/2
f 115/9/2 114/9/2 116/9/2
f 117/7/2 118/7/2 119/7/2
f 119/7/2 118/7/2 120/7/2
f 121/2/2 122/2/2 123/2/2
f 123/2/2 122/2/2 124/2/2
f 125/8/2 126/8/2 127/8/2
f 127/8/2 126/8/2 128/8/2
f 129/4/2 130/4/2 133/4/2
f 131/4/2 132/4/2 134/4/2
f 129/4/2 133/4/2 135/4/2
f 133/4/2 134/4/2 135/4/2
f 134/4/2 132/4/2 136/4/2
f 135/4/2 134/4/2 136/4/2
f 139/5/3 138/5/3 137/5/3
f 140/5/3 138/5/3 139/5/3
f 143/5/3 142/5/3 141/5/3
f 144/5/3 142/5/3 143/5/3
f 147/10/3 146/10/3 145/10/3
f 148/10/3 146/10/3 147/10/3
f 151/2/3 150/2/3 149/2/3
f 152/2/3 150/2/3 151/2/3
f 153/3/3 152/3/3 151/3/3
f 154/3/3 152/3/3 153/3/3
f 157/3/3 153/3/3 151/3/3
f 158/2/3 154/2/3 153/2/3
f 158/3/3 153/3/3 157/3/3
f 159/2/3 154/2/3 158/2/3
f 160/3/3 152/3/3 154/3/3
f 160/2/3 154/2/3 159/2/3
f 161/5/3 156/5/3 155/5/3
f 162/5/3 156/5/3 161/5/3
f 163/2/3 159/2/3 158/2/3
f 163/2/3 158/2/3 157/2/3
f 164/3/3 160/3/3 159/3/3
f 164/2/3 159/2/3 163/2/3
f 165/5/3 156/5/3 162/5/3
f 166/5/3 156/5/3 165/5/3
f 167/3/3 157/3/3 151/3/3
f 167/2/3 163/2/3 157/2/3
f 168/3/3 164/3/3 163/3/3
f 168/2/3 163/2/3 167/2/3
f 169/3/3 164/3/3 168/3/3
f 170/3/3 160/3/3 164/3/3
f 170/3/3 164/3/3 169/3/3
f 171/3/3 169/3/3 168/3/3
f 171/2/3 170/2/3 169/2/3
f 171/3/3 168/3/3 167/3/3
f 172/3/3 160/3/3 170/3/3
f 172/2/3 170/2/3 171/2/3
f 173/3/3 172/3/3 171/3/3
f 174/3/3 160/3/3 172/3/3
f 174/3/3 172/3/3 173/3/3
f 175/3/3 173/3/3 171/3/3
f 175/2/3 174/2/3 173/2/3
f 176/3/3 160/3/3 174/3/3
f 176/2/3 174/2/3 175/2/3
f 177/3/3 171/3/3 167/3/3
f 177/3/3 167/3/3 151/3/3
f 177/3/3 176/3/3 175/3/3
f 177/3/3 175/3/3 171/3/3
f 178/3/3 176/3/3 177/3/3
f 179/3/3 177/3/3 151/3/3
f 179/2/3 178/2/3 177/2/3
f 180/3/3 176/3/3 178/3/3
f 180/2/3 178/2/3 179/2/3
f 181/3/3 180/3/3 179/3/3
f 181/3/3 176/3/3 180/3/3
f 182/3/3 160/3/3 176/3/3
f 182/3/3 176/3/3 181/3/3
f 183/3/3 181/3/3 179/3/3
f 183/2/3 182/2/3 181/2/3
f 184/3/3 160/3/3 182/3/3
f 184/2/3 182/2/3 183/2/3
f 185/3/3 183/3/3 179/3/3
f 185/3/3 184/3/3 183/3/3
f 186/3/3 184/3/3 185/3/3
f 189/3/3 185/3/3 179/3/3
f 190/3/3 185/3/3 189/3/3
f 191/2/3 186/2/3 185/2/3
f 191/3/3 185/3/3 190/3/3
f 192/3/3 184/3/3 186/3/3
f 192/2/3 186/2/3 191/2/3
f 193/2/3 190/2/3 189/2/3
f 193/3/3 191/3/3 190/3/3
f 193/3/3 192/3/3 191/3/3
f 194/3/3 192/3/3 193/3/3
f 196/5/3 188/5/3 187/5/3
f 197/5/3 196/5/3 195/5/3
f 198/5/3 188/5/3 196/5/3
f 198/5/3 196/5/3 197/5/3
f 199/3/3 189/3/3 179/3/3
f 199/2/3 193/2/3 189/2/3
f 199/2/3 194/2/3 193/2/3
f 200/2/3 194/2/3 199/2/3
f 201/3/3 192/3/3 194/3/3
f 201/2/3 194/2/3 200/2/3
f 202/3/3 152/3/3 160/3/3
f 202/3/3 192/3/3 201/3/3
f 202/3/3 160/3/3 184/3/3
f 202/3/3 184/3/3 192/3/3
f 203/2/3 201/2/3 200/2/3
f 203/3/3 200/3/3 199/3/3
f 203/2/3 202/2/3 201/2/3
f 204/3/3 152/3/3 202/3/3
f 204/2/3 202/2/3 203/2/3
f 205/2/3 151/2/3 149/2/3
f 205/3/3 203/3/3 199/3/3
f 205/3/3 204/3/3 203/3/3
f 205/3/3 199/3/3 179/3/3
f 205/3/3 179/3/3 151/3/3
f 206/3/3 152/3/3 204/3/3
f 206/3/3 204/3/3 205/3/3
f 206/2/3 150/2/3 152/2/3
f 207/2/3 205/2/3 149/2/3
f 207/2/3 206/2/3 205/2/3
f 208/2/3 150/2/3 206/2/3
f 208/2/3 206/2/3 207/2/3
f 211/4/3 210/4/3 209/4/3
f 212/4/3 210/4/3 211/4/3
f 215/9/3 214/9/3 213/9/3
f 216/9/3 215/9/3 213/9/3
f 217/9/3 216/9/3 213/9/3
f 218/9/3 216/9/3 217/9/3
f 219/5/3 218/5/3 217/5/3
f 220/9/3 216/9/3 218/9/3
f 220/5/3 218/5/3 219/5/3
f 221/9/3 220/9/3 219/9/3
f 222/9/3 216/9/3 220/9/3
f 222/9/3 220/9/3 221/9/3
f 223/5/3 222/5/3 221/5/3
f 224/9/3 216/9/3 222/9/3
f 224/5/3 222/5/3 223/5/3
f 225/9/3 224/9/3 223/9/3
f 225/9/3 216/9/3 224/9/3
f 226/9/3 225/9/3 223/9/3
f 227/9/3 226/9/3 223/9/3
f 228/9/3 226/9/3 227/9/3
f 230/4/3 210/4/3 212/4/3
f 231/4/3 230/4/3 229/4/3
f 232/4/3 210/4/3 230/4/3
f 232/4/3 230/4/3 231/4/3
f 235/8/3 234/8/3 233/8/3
f 236/8/3 234/8/3 235/8/3
f 237/8/3 235/8/3 233/8/3
f 238/8/3 235/8/3 237/8/3
f 239/8/3 235/8/3 238/8/3
f 240/8/3 235/8/3 239/8/3
f 241/8/3 235/8/3 240/8/3
f 244/8/3 235/8/3 241/8/3
f 245/8/3 234/8/3 236/8/3
f 246/8/3 243/8/3 242/8/3
f 248/8/3 246/8/3 242/8/3
f 248/8/3 247/8/3 246/8/3
f 249/8/3 247/8/3 248/8/3
f 250/8/3 248/8/3 242/8/3
f 251/8/3 248/8/3 250/8/3
f 252/8/3 244/8/3 241/8/3
f 252/8/3 245/8/3 244/8/3
f 253/8/3 234/8/3 245/8/3
f 253/8/3 245/8/3 252/8/3
f 256/8/3 252/8/3 241/8/3
f 258/8/3 255/8/3 254/8/3
f 258/8/3 256/8/3 255/8/3
f 259/8/3 252/8/3 256/8/3
f 259/8/3 258/8/3 257/8/3
f 259/8/3 256/8/3 258/8/3
f 260/8/3 234/8/3 253/8/3
f 261/8/3 259/8/3 257/8/3
f 261/8/3 260/8/3 259/8/3
f 262/8/3 234/8/3 260/8/3
f 262/8/3 260/8/3 261/8/3
f 265/4/3 264/4/3 263/4/3
f 266/4/3 264/4/3 265/4/3
f 269/4/3 268/4/3 267/4/3
f 270/4/3 268/4/3 269/4/3
f 273/4/3 272/4/3 271/4/3
f 274/4/3 272/4/3 273/4/3
f 275/5/4 276/5/4 277/5/4
f 277/5/4 276/5/4 278/5/4
f 279/10/4 280/10/4 281/10/4
f 281/10/4 280/10/4 282/10/4
f 283/2/4 284/2/4 285/2/4
f 285/2/4 284/2/4 286/2/4
f 285/3/4 286/3/4 287/3/4
f 287/3/4 286/3/4 288/3/4
f 285/3/4 287/3/4 289/3/4
f 288/3/4 286/3/4 292/3/4
f 290/2/4 291/2/4 293/2/4
f 291/3/4 292/3/4 294/3/4
f 293/2/4 291/2/4 294/2/4
f 290/2/4 293/2/4 295/2/4
f 289/3/4 290/3/4 295/3/4
f 293/3/4 294/3/4 296/3/4
f 295/2/4 293/2/4 296/2/4
f 296/3/4 294/3/4 297/3/4
f 294/3/4 292/3/4 298/3/4
f 297/3/4 294/3/4 298/3/4
f 296/3/4 297/3/4 299/3/4
f 295/3/4 296/3/4 299/3/4
f 297/2/4 298/2/4 299/2/4
f 298/3/4 292/3/4 300/3/4
f 299/2/4 298/2/4 300/2/4
f 299/3/4 300/3/4 301/3/4
f 300/3/4 292/3/4 302/3/4
f 301/3/4 300/3/4 302/3/4
f 299/3/4 301/3/4 303/3/4
f 301/2/4 302/2/4 303/2/4
f 302/3/4 292/3/4 304/3/4
f 303/2/4 302/2/4 304/2/4
f 295/3/4 299/3/4 305/3/4
f 289/3/4 295/3/4 305/3/4
f 303/3/4 304/3/4 305/3/4
f 299/3/4 303/3/4 305/3/4
f 305/3/4 304/3/4 306/3/4
f 289/3/4 305/3/4 307/3/4
f 305/2/4 306/2/4 307/2/4
f 306/3/4 304/3/4 308/3/4
f 307/2/4 306/2/4 308/2/4
f 307/3/4 308/3/4 309/3/4
f 308/3/4 304/3/4 309/3/4
f 304/3/4 292/3/4 310/3/4
f 309/3/4 304/3/4 310/3/4
f 307/3/4 309/3/4 311/3/4
f 309/2/4 310/2/4 311/2/4
f 310/3/4 292/3/4 312/3/4
f 311/2/4 310/2/4 312/2/4
f 307/3/4 311/3/4 313/3/4
f 311/3/4 312/3/4 313/3/4
f 313/3/4 312/3/4 314/3/4
f 307/3/4 313/3/4 315/3/4
f 315/3/4 313/3/4 316/3/4
f 313/2/4 314/2/4 317/2/4
f 316/3/4 313/3/4 317/3/4
f 314/3/4 312/3/4 318/3/4
f 317/2/4 314/2/4 318/2/4
f 316/3/4 317/3/4 319/3/4
f 315/2/4 316/2/4 319/2/4
f 317/3/4 318/3/4 319/3/4
f 319/3/4 318/3/4 320/3/4
f 285/3/4 289/3/4 321/3/4
f 289/3/4 307/3/4 321/3/4
f 307/3/4 315/3/4 321/3/4
f 319/2/4 320/2/4 322/2/4
f 321/3/4 315/3/4 322/3/4
f 315/2/4 319/2/4 322/2/4
f 320/3/4 318/3/4 323/3/4
f 322/2/4 320/2/4 323/2/4
f 312/3/4 292/3/4 324/3/4
f 323/3/4 318/3/4 324/3/4
f 292/3/4 286/3/4 324/3/4
f 318/3/4 312/3/4 324/3/4
f 285/3/4 321/3/4 325/3/4
f 324/3/4 286/3/4 326/3/4
f 283/2/4 285/2/4 327/2/4
f 325/3/4 326/3/4 327/3/4
f 285/3/4 325/3/4 327/3/4
f 326/3/4 286/3/4 328/3/4
f 327/3/4 326/3/4 328/3/4
f 286/2/4 284/2/4 328/2/4
f 283/2/4 327/2/4 329/2/4
f 327/2/4 328/2/4 329/2/4
f 328/2/4 284/2/4 330/2/4
f 329/2/4 328/2/4 330/2/4
f 331/4/4 332/4/4 333/4/4
f 333/4/4 332/4/4 334/4/4
f 335/4/4 336/4/4 337/4/4
f 337/4/4 336/4/4 338/4/4
f 339/4/4 340/4/4 341/4/4
f 341/4/4 340/4/4 342/4/4
f 343/8/4 344/8/4 345/8/4
f 345/8/4 344/8/4 346/8/4
f 347/4/4 348/4/4 349/4/4
f 349/4/4 348/4/4 350/4/4
f 350/4/4 348/4/4 352/4/4
f 351/4/4 352/4/4 353/4/4
f 352/4/4 348/4/4 354/4/4
f 353/4/4 352/4/4 354/4/4
f 365/4/5 356/4/5 355/4/5
f 366/4/5 356/4/5 365/4/5
f 367/9/5 358/9/5 357/9/5
f 368/5/5 359/5/5 358/5/5
f 368/9/5 358/9/5 367/9/5
f 369/9/5 360/9/5 359/9/5
f 369/5/5 359/5/5 368/5/5
f 370/5/5 361/5/5 360/5/5
f 370/9/5 360/9/5 369/9/5
f 371/9/5 362/9/5 361/9/5
f 371/5/5 361/5/5 370/5/5
f 372/9/5 362/9/5 371/9/5
f 373/4/5 364/4/5 363/4/5
f 374/4/5 364/4/5 373/4/5
f 375/8/5 366/8/5 365/8/5
f 375/8/5 367/8/5 366/8/5
f 375/8/5 368/8/5 367/8/5
f 375/1/5 369/1/5 368/1/5
f 375/1/5 370/1/5 369/1/5
f 375/1/5 371/1/5 370/1/5
f 376/8/5 372/8/5 371/8/5
f 376/1/5 371/1/5 375/1/5
f 376/8/5 374/8/5 373/8/5
f 376/8/5 373/8/5 372/8/5
f 377/4/5 365/4/5 355/4/5
f 378/8/5 375/8/5 365/8/5
f 378/4/5 365/4/5 377/4/5
f 378/8/5 376/8/5 375/8/5
f 379/4/5 364/4/5 374/4/5
f 379/8/5 376/8/5 378/8/5
f 379/8/5 374/8/5 376/8/5
f 380/4/5 364/4/5 379/4/5
f 382/8/5 379/8/5 378/8/5
f 383/8/5 379/8/5 382/8/5
f 385/4/5 382/4/5 381/4/5
f 385/8/5 383/8/5 382/8/5
f 386/8/5 383/8/5 385/8/5
f 387/8/5 383/8/5 386/8/5
f 388/4/5 384/4/5 383/4/5
f 388/8/5 383/8/5 387/8/5
f 389/4/5 385/4/5 381/4/5
f 389/4/5 386/4/5 385/4/5
f 390/4/5 386/4/5 389/4/5
f 391/4/5 388/4/5 387/4/5
f 392/4/5 384/4/5 388/4/5
f 392/4/5 388/4/5 391/4/5
f 397/5/5 394/5/5 393/5/5
f 398/5/5 394/5/5 397/5/5
f 399/5/5 396/5/5 395/5/5
f 400/5/5 396/5/5 399/5/5
f 403/5/5 402/5/5 401/5/5
f 404/5/5 402/5/5 403/5/5
f 407/5/5 406/5/5 405/5/5
f 408/5/5 406/5/5 407/5/5
f 409/10/5 408/10/5 407/10/5
f 410/10/5 408/10/5 409/10/5
f 415/5/5 412/5/5 411/5/5
f 416/5/5 412/5/5 415/5/5
f 417/5/5 414/5/5 413/5/5
f 418/5/5 414/5/5 417/5/5
f 421/10/5 420/10/5 419/10/5
f 422/10/5 420/10/5 421/10/5
f 423/10/5 420/10/5 422/10/5
f 424/10/5 420/10/5 423/10/5
f 425/10/5 423/10/5 422/10/5
f 426/10/5 423/10/5 425/10/5
f 429/2/5 428/2/5 427/2/5
f 430/2/5 428/2/5 429/2/5
f 435/7/5 432/7/5 431/7/5
f 436/7/5 432/7/5 435/7/5
f 437/7/5 434/7/5 433/7/5
f 438/7/5 434/7/5 437/7/5
f 441/4/5 440/4/5 439/4/5
f 442/4/5 440/4/5 441/4/5
f 447/4/5 444/4/5 443/4/5
f 448/4/5 444/4/5 447/4/5
f 449/4/5 446/4/5 445/4/5
f 450/4/5 446/4/5 449/4/5
f 453/4/5 452/4/5 451/4/5
f 454/4/5 452/4/5 453/4/5
f 455/9/6 456/9/6 461/9/6
f 461/9/6 456/9/6 462/9/6
f 457/9/6 458/9/6 463/9/6
f 463/9/6 458/9/6 464/9/6
f 459/9/6 460/9/6 465/9/6
f 465/9/6 460/9/6 466/9/6
f 467/5/6 468/5/6 469/5/6
f 469/5/6 468/5/6 470/5/6
f 471/5/6 472/5/6 473/5/6
f 473/5/6 472/5/6 474/5/6
f 475/10/6 476/10/6 477/10/6
f 477/10/6 476/10/6 478/10/6
f 479/7/6 480/7/6 483/7/6
f 483/7/6 480/7/6 484/7/6
f 481/7/6 482/7/6 485/7/6
f 485/7/6 482/7/6 486/7/6
f 487/2/6 488/2/6 489/2/6
f 489/2/6 488/2/6 490/2/6
f 491/6/6 492/6/6 493/6/6
f 493/6/6 492/6/6 494/6/6
f 495/4/6 496/4/6 497/4/6
f 497/4/6 496/4/6 498/4/6
f 495/4/6 497/4/6 499/4/6
f 498/4/6 496/4/6 500/4/6
f 495/4/6 499/4/6 501/4/6
f 499/4/6 500/4/6 501/4/6
f 500/4/6 496/4/6 502/4/6
f 501/4/6 500/4/6 502/4/6
