# MagicaVoxel @ Ephtracy

# group
o 

# material
mtllib Street06.mtl
usemtl palette

# normals
vn -1 0 0
vn 1 0 0
vn 0 0 1
vn 0 0 -1
vn 0 -1 0
vn 0 1 0

# texcoords
vt 0.912109 0.5
vt 0.939453 0.5
vt 0.943359 0.5
vt 0.970703 0.5
vt 0.974609 0.5

# verts
v -4.9 0 2.8
v -4.9 0 -2.8
v -4.9 0.1 2.8
v -4.9 0.1 -2.6
v -4.9 0.1 -2.8
v -4.9 0.3 2.8
v -4.9 0.3 -2.6
v -4.9 0.3 -2.8
v 3.4 0.1 2.8
v 3.4 0.1 2.5
v 3.4 0.1 1.8
v 3.4 0.1 1.1
v 3.4 0.1 0.4
v 3.4 0.1 -0.3
v 3.4 0.1 -1
v 3.4 0.1 -1.7
v 3.4 0.1 -2.4
v 3.4 0.1 -2.8
v 3.4 0.3 2.8
v 3.4 0.3 2.5
v 3.4 0.3 1.8
v 3.4 0.3 1.1
v 3.4 0.3 0.4
v 3.4 0.3 -0.3
v 3.4 0.3 -1
v 3.4 0.3 -1.7
v 3.4 0.3 -2.4
v 3.4 0.3 -2.8
v -3.3 0.1 2.8
v -3.3 0.1 2.5
v -3.3 0.1 1.8
v -3.3 0.1 1.1
v -3.3 0.1 0.4
v -3.3 0.1 -0.3
v -3.3 0.1 -1
v -3.3 0.1 -1.7
v -3.3 0.1 -2.4
v -3.3 0.1 -2.8
v -3.3 0.3 2.8
v -3.3 0.3 2.5
v -3.3 0.3 1.8
v -3.3 0.3 1.1
v -3.3 0.3 0.4
v -3.3 0.3 -0.3
v -3.3 0.3 -1
v -3.3 0.3 -1.7
v -3.3 0.3 -2.4
v -3.3 0.3 -2.8
v 5 0 2.8
v 5 0 -2.8
v 5 0.1 2.8
v 5 0.1 -2.8
v 5 0.3 2.8
v 5 0.3 -2.8
v -4.9 0 2.8
v -4.9 0.1 2.8
v -4.9 0.3 2.8
v -3.5 0.1 2.8
v -3.5 0.3 2.8
v -3.3 0.1 2.8
v -3.3 0.3 2.8
v 3.4 0.1 2.8
v 3.4 0.3 2.8
v 3.6 0.1 2.8
v 3.6 0.3 2.8
v 5 0 2.8
v 5 0.1 2.8
v 5 0.3 2.8
v -4.9 0 -2.8
v -4.9 0.1 -2.8
v -4.9 0.3 -2.8
v -4.4 0.1 -2.8
v -4.4 0.3 -2.8
v -3.7 0.1 -2.8
v -3.7 0.3 -2.8
v -3.3 0.1 -2.8
v -3.3 0.3 -2.8
v 3.4 0.1 -2.8
v 3.4 0.3 -2.8
v 3.6 0.1 -2.8
v 3.6 0.3 -2.8
v 5 0 -2.8
v 5 0.1 -2.8
v 5 0.3 -2.8
v -4.9 0 2.8
v 5 0 2.8
v -0.0999999 0 2.5
v 0.0999999 0 2.5
v -0.0999999 0 1.4
v 0.0999999 0 1.4
v -0.0999999 0 1
v 0.0999999 0 1
v -0.0999999 0 -2.38419e-007
v 0.0999999 0 -2.38419e-007
v -0.0999999 0 -0.3
v 0.0999999 0 -0.3
v -0.0999999 0 -1.3
v 0.0999999 0 -1.3
v -0.0999999 0 -1.6
v 0.0999999 0 -1.6
v -0.0999999 0 -2.5
v 0.0999999 0 -2.5
v -4.9 0 -2.8
v 5 0 -2.8
v -3.3 0.1 2.8
v 3.4 0.1 2.8
v -3.3 0.1 2.5
v -0.0999999 0.1 2.5
v 0.0999999 0.1 2.5
v 3.4 0.1 2.5
v -3.3 0.1 1.8
v 3.4 0.1 1.8
v -0.0999999 0.1 1.4
v 0.0999999 0.1 1.4
v -3.3 0.1 1.1
v 3.4 0.1 1.1
v -0.0999999 0.1 1
v 0.0999999 0.1 1
v -3.3 0.1 0.4
v 3.4 0.1 0.4
v -0.0999999 0.1 -2.38419e-007
v 0.0999999 0.1 -2.38419e-007
v -3.3 0.1 -0.3
v -0.0999999 0.1 -0.3
v 0.0999999 0.1 -0.3
v 3.4 0.1 -0.3
v -3.3 0.1 -1
v 3.4 0.1 -1
v -0.0999999 0.1 -1.3
v 0.0999999 0.1 -1.3
v -0.0999999 0.1 -1.6
v 0.0999999 0.1 -1.6
v -3.3 0.1 -1.7
v 3.4 0.1 -1.7
v -3.3 0.1 -2.4
v 3.4 0.1 -2.4
v -0.0999999 0.1 -2.5
v 0.0999999 0.1 -2.5
v -3.3 0.1 -2.8
v 3.4 0.1 -2.8
v -4.9 0.3 2.8
v -3.5 0.3 2.8
v -3.3 0.3 2.8
v 3.4 0.3 2.8
v 3.6 0.3 2.8
v 5 0.3 2.8
v -3.5 0.3 2.5
v -3.3 0.3 2.5
v 3.4 0.3 2.5
v 3.6 0.3 2.5
v -3.5 0.3 1.8
v -3.3 0.3 1.8
v 3.4 0.3 1.8
v 3.6 0.3 1.8
v -3.5 0.3 1.1
v -3.3 0.3 1.1
v 3.4 0.3 1.1
v 3.6 0.3 1.1
v -3.5 0.3 0.4
v -3.3 0.3 0.4
v 3.4 0.3 0.4
v 3.6 0.3 0.4
v -3.5 0.3 -0.3
v -3.3 0.3 -0.3
v 3.4 0.3 -0.3
v 3.6 0.3 -0.3
v -3.5 0.3 -1
v -3.3 0.3 -1
v 3.4 0.3 -1
v 3.6 0.3 -1
v -3.5 0.3 -1.7
v -3.3 0.3 -1.7
v 3.4 0.3 -1.7
v 3.6 0.3 -1.7
v -3.5 0.3 -2.4
v -3.3 0.3 -2.4
v 3.4 0.3 -2.4
v 3.6 0.3 -2.4
v -4.9 0.3 -2.6
v -4.4 0.3 -2.6
v -3.7 0.3 -2.6
v -3.5 0.3 -2.6
v -4.9 0.3 -2.8
v -4.4 0.3 -2.8
v -3.7 0.3 -2.8
v -3.3 0.3 -2.8
v 3.4 0.3 -2.8
v 3.6 0.3 -2.8
v 5 0.3 -2.8

# faces
f 3/4/1 2/4/1 1/4/1
f 4/4/1 2/4/1 3/4/1
f 5/4/1 2/4/1 4/4/1
f 6/5/1 4/5/1 3/5/1
f 7/3/1 5/3/1 4/3/1
f 7/5/1 4/5/1 6/5/1
f 8/3/1 5/3/1 7/3/1
f 19/3/1 10/3/1 9/3/1
f 20/1/1 11/1/1 10/1/1
f 20/3/1 10/3/1 19/3/1
f 21/3/1 12/3/1 11/3/1
f 21/1/1 11/1/1 20/1/1
f 22/1/1 13/1/1 12/1/1
f 22/3/1 12/3/1 21/3/1
f 23/3/1 14/3/1 13/3/1
f 23/1/1 13/1/1 22/1/1
f 24/1/1 15/1/1 14/1/1
f 24/3/1 14/3/1 23/3/1
f 25/3/1 16/3/1 15/3/1
f 25/1/1 15/1/1 24/1/1
f 26/1/1 17/1/1 16/1/1
f 26/3/1 16/3/1 25/3/1
f 27/3/1 18/3/1 17/3/1
f 27/1/1 17/1/1 26/1/1
f 28/3/1 18/3/1 27/3/1
f 29/3/2 30/3/2 39/3/2
f 30/1/2 31/1/2 40/1/2
f 39/3/2 30/3/2 40/3/2
f 31/3/2 32/3/2 41/3/2
f 40/1/2 31/1/2 41/1/2
f 32/1/2 33/1/2 42/1/2
f 41/3/2 32/3/2 42/3/2
f 33/3/2 34/3/2 43/3/2
f 42/1/2 33/1/2 43/1/2
f 34/1/2 35/1/2 44/1/2
f 43/3/2 34/3/2 44/3/2
f 35/3/2 36/3/2 45/3/2
f 44/1/2 35/1/2 45/1/2
f 36/1/2 37/1/2 46/1/2
f 45/3/2 36/3/2 46/3/2
f 37/3/2 38/3/2 47/3/2
f 46/1/2 37/1/2 47/1/2
f 47/3/2 38/3/2 48/3/2
f 49/4/2 50/4/2 51/4/2
f 51/4/2 50/4/2 52/4/2
f 51/5/2 52/5/2 53/5/2
f 53/5/2 52/5/2 54/5/2
f 58/4/3 56/4/3 55/4/3
f 58/5/3 57/5/3 56/5/3
f 59/5/3 57/5/3 58/5/3
f 60/4/3 58/4/3 55/4/3
f 60/3/3 59/3/3 58/3/3
f 61/3/3 59/3/3 60/3/3
f 62/4/3 60/4/3 55/4/3
f 64/4/3 62/4/3 55/4/3
f 64/3/3 63/3/3 62/3/3
f 65/3/3 63/3/3 64/3/3
f 66/4/3 64/4/3 55/4/3
f 67/5/3 65/5/3 64/5/3
f 67/4/3 64/4/3 66/4/3
f 68/5/3 65/5/3 67/5/3
f 69/4/4 70/4/4 72/4/4
f 70/3/4 71/3/4 72/3/4
f 72/3/4 71/3/4 73/3/4
f 69/4/4 72/4/4 74/4/4
f 72/1/4 73/1/4 74/1/4
f 74/1/4 73/1/4 75/1/4
f 69/4/4 74/4/4 76/4/4
f 74/3/4 75/3/4 76/3/4
f 76/3/4 75/3/4 77/3/4
f 69/4/4 76/4/4 78/4/4
f 69/4/4 78/4/4 80/4/4
f 78/3/4 79/3/4 80/3/4
f 80/3/4 79/3/4 81/3/4
f 69/4/4 80/4/4 82/4/4
f 80/5/4 81/5/4 83/5/4
f 82/4/4 80/4/4 83/4/4
f 83/5/4 81/5/4 84/5/4
f 87/4/5 86/4/5 85/4/5
f 88/4/5 86/4/5 87/4/5
f 89/4/5 87/4/5 85/4/5
f 89/2/5 88/2/5 87/2/5
f 90/4/5 86/4/5 88/4/5
f 90/2/5 88/2/5 89/2/5
f 91/4/5 89/4/5 85/4/5
f 91/4/5 90/4/5 89/4/5
f 92/4/5 86/4/5 90/4/5
f 92/4/5 90/4/5 91/4/5
f 93/4/5 91/4/5 85/4/5
f 93/2/5 92/2/5 91/2/5
f 94/4/5 86/4/5 92/4/5
f 94/2/5 92/2/5 93/2/5
f 95/4/5 93/4/5 85/4/5
f 95/4/5 94/4/5 93/4/5
f 96/4/5 86/4/5 94/4/5
f 96/4/5 94/4/5 95/4/5
f 97/4/5 95/4/5 85/4/5
f 97/2/5 96/2/5 95/2/5
f 98/4/5 86/4/5 96/4/5
f 98/2/5 96/2/5 97/2/5
f 99/4/5 97/4/5 85/4/5
f 99/4/5 98/4/5 97/4/5
f 100/4/5 86/4/5 98/4/5
f 100/4/5 98/4/5 99/4/5
f 101/4/5 99/4/5 85/4/5
f 101/2/5 100/2/5 99/2/5
f 102/4/5 86/4/5 100/4/5
f 102/2/5 100/2/5 101/2/5
f 103/4/5 101/4/5 85/4/5
f 103/4/5 102/4/5 101/4/5
f 104/4/5 86/4/5 102/4/5
f 104/4/5 102/4/5 103/4/5
f 105/4/6 106/4/6 107/4/6
f 107/4/6 106/4/6 108/4/6
f 108/4/6 106/4/6 109/4/6
f 109/4/6 106/4/6 110/4/6
f 107/4/6 108/4/6 111/4/6
f 109/4/6 110/4/6 112/4/6
f 108/2/6 109/2/6 113/2/6
f 111/4/6 108/4/6 113/4/6
f 109/4/6 112/4/6 114/4/6
f 113/2/6 109/2/6 114/2/6
f 111/4/6 113/4/6 115/4/6
f 113/4/6 114/4/6 115/4/6
f 114/4/6 112/4/6 116/4/6
f 115/4/6 114/4/6 116/4/6
f 115/4/6 116/4/6 117/4/6
f 117/4/6 116/4/6 118/4/6
f 115/4/6 117/4/6 119/4/6
f 118/4/6 116/4/6 120/4/6
f 119/4/6 117/4/6 121/4/6
f 117/2/6 118/2/6 121/2/6
f 118/4/6 120/4/6 122/4/6
f 121/2/6 118/2/6 122/2/6
f 119/4/6 121/4/6 123/4/6
f 121/4/6 122/4/6 123/4/6
f 123/4/6 122/4/6 124/4/6
f 122/4/6 120/4/6 125/4/6
f 124/4/6 122/4/6 125/4/6
f 125/4/6 120/4/6 126/4/6
f 123/4/6 124/4/6 127/4/6
f 125/4/6 126/4/6 128/4/6
f 124/2/6 125/2/6 129/2/6
f 127/4/6 124/4/6 129/4/6
f 125/4/6 128/4/6 130/4/6
f 129/2/6 125/2/6 130/2/6
f 127/4/6 129/4/6 131/4/6
f 129/4/6 130/4/6 131/4/6
f 130/4/6 128/4/6 132/4/6
f 131/4/6 130/4/6 132/4/6
f 127/4/6 131/4/6 133/4/6
f 132/4/6 128/4/6 134/4/6
f 133/4/6 131/4/6 135/4/6
f 132/4/6 134/4/6 136/4/6
f 131/2/6 132/2/6 137/2/6
f 135/4/6 131/4/6 137/4/6
f 132/4/6 136/4/6 138/4/6
f 137/2/6 132/2/6 138/2/6
f 135/4/6 137/4/6 139/4/6
f 137/4/6 138/4/6 139/4/6
f 138/4/6 136/4/6 140/4/6
f 139/4/6 138/4/6 140/4/6
f 141/5/6 142/5/6 147/5/6
f 142/3/6 143/3/6 147/3/6
f 147/3/6 143/3/6 148/3/6
f 144/3/6 145/3/6 149/3/6
f 145/5/6 146/5/6 150/5/6
f 149/3/6 145/3/6 150/3/6
f 147/1/6 148/1/6 151/1/6
f 141/5/6 147/5/6 151/5/6
f 151/1/6 148/1/6 152/1/6
f 149/1/6 150/1/6 153/1/6
f 150/5/6 146/5/6 154/5/6
f 153/1/6 150/1/6 154/1/6
f 151/3/6 152/3/6 155/3/6
f 141/5/6 151/5/6 155/5/6
f 155/3/6 152/3/6 156/3/6
f 153/3/6 154/3/6 157/3/6
f 154/5/6 146/5/6 158/5/6
f 157/3/6 154/3/6 158/3/6
f 155/1/6 156/1/6 159/1/6
f 141/5/6 155/5/6 159/5/6
f 159/1/6 156/1/6 160/1/6
f 157/1/6 158/1/6 161/1/6
f 158/5/6 146/5/6 162/5/6
f 161/1/6 158/1/6 162/1/6
f 159/3/6 160/3/6 163/3/6
f 141/5/6 159/5/6 163/5/6
f 163/3/6 160/3/6 164/3/6
f 161/3/6 162/3/6 165/3/6
f 162/5/6 146/5/6 166/5/6
f 165/3/6 162/3/6 166/3/6
f 163/1/6 164/1/6 167/1/6
f 141/5/6 163/5/6 167/5/6
f 167/1/6 164/1/6 168/1/6
f 165/1/6 166/1/6 169/1/6
f 166/5/6 146/5/6 170/5/6
f 169/1/6 166/1/6 170/1/6
f 167/3/6 168/3/6 171/3/6
f 141/5/6 167/5/6 171/5/6
f 171/3/6 168/3/6 172/3/6
f 169/3/6 170/3/6 173/3/6
f 170/5/6 146/5/6 174/5/6
f 173/3/6 170/3/6 174/3/6
f 171/1/6 172/1/6 175/1/6
f 141/5/6 171/5/6 175/5/6
f 175/1/6 172/1/6 176/1/6
f 173/1/6 174/1/6 177/1/6
f 174/5/6 146/5/6 178/5/6
f 177/1/6 174/1/6 178/1/6
f 141/5/6 175/5/6 179/5/6
f 179/5/6 175/5/6 180/5/6
f 180/5/6 175/5/6 181/5/6
f 175/3/6 176/3/6 182/3/6
f 181/5/6 175/5/6 182/5/6
f 179/3/6 180/3/6 183/3/6
f 180/1/6 181/1/6 184/1/6
f 183/3/6 180/3/6 184/3/6
f 181/3/6 182/3/6 185/3/6
f 184/1/6 181/1/6 185/1/6
f 182/3/6 176/3/6 186/3/6
f 185/3/6 182/3/6 186/3/6
f 177/3/6 178/3/6 187/3/6
f 178/5/6 146/5/6 188/5/6
f 187/3/6 178/3/6 188/3/6
f 188/5/6 146/5/6 189/5/6
