# MagicaVoxel @ Ephtracy

# group
o 

# material
mtllib Street12.mtl
usemtl palette

# normals
vn -1 0 0
vn 1 0 0
vn 0 0 1
vn 0 0 -1
vn 0 -1 0
vn 0 1 0

# texcoords
vt 0.912109 0.5
vt 0.943359 0.5
vt 0.970703 0.5
vt 0.974609 0.5

# verts
v -1.5 0 2.8
v -1.5 0 -2.8
v -1.5 0.1 2.8
v -1.5 0.1 -2.8
v 3.4 0.1 2.8
v 3.4 0.1 2.5
v 3.4 0.1 1.8
v 3.4 0.1 1.1
v 3.4 0.1 0.4
v 3.4 0.1 -0.3
v 3.4 0.1 -1
v 3.4 0.1 -1.7
v 3.4 0.1 -2.4
v 3.4 0.1 -2.8
v 3.4 0.3 2.8
v 3.4 0.3 2.5
v 3.4 0.3 1.8
v 3.4 0.3 1.1
v 3.4 0.3 0.4
v 3.4 0.3 -0.3
v 3.4 0.3 -1
v 3.4 0.3 -1.7
v 3.4 0.3 -2.4
v 3.4 0.3 -2.8
v 5 0 2.8
v 5 0 -2.8
v 5 0.1 2.8
v 5 0.1 -2.8
v 5 0.3 2.8
v 5 0.3 -2.8
v -1.5 0 2.8
v -1.5 0.1 2.8
v 3.4 0.1 2.8
v 3.4 0.3 2.8
v 3.6 0.1 2.8
v 3.6 0.3 2.8
v 5 0 2.8
v 5 0.1 2.8
v 5 0.3 2.8
v -1.5 0 -2.8
v -1.5 0.1 -2.8
v 3.4 0.1 -2.8
v 3.4 0.3 -2.8
v 3.6 0.1 -2.8
v 3.6 0.3 -2.8
v 5 0 -2.8
v 5 0.1 -2.8
v 5 0.3 -2.8
v -1.5 0 2.8
v 5 0 2.8
v -1.5 0 -2.8
v 5 0 -2.8
v -1.5 0.1 2.8
v 3.4 0.1 2.8
v 3.4 0.1 2.5
v 3.4 0.1 1.8
v 3.4 0.1 1.1
v 3.4 0.1 0.4
v 3.4 0.1 -0.3
v 3.4 0.1 -1
v 3.4 0.1 -1.7
v 3.4 0.1 -2.4
v -1.5 0.1 -2.8
v 3.4 0.1 -2.8
v 3.4 0.3 2.8
v 3.6 0.3 2.8
v 5 0.3 2.8
v 3.4 0.3 2.5
v 3.6 0.3 2.5
v 3.4 0.3 1.8
v 3.6 0.3 1.8
v 3.4 0.3 1.1
v 3.6 0.3 1.1
v 3.4 0.3 0.4
v 3.6 0.3 0.4
v 3.4 0.3 -0.3
v 3.6 0.3 -0.3
v 3.4 0.3 -1
v 3.6 0.3 -1
v 3.4 0.3 -1.7
v 3.6 0.3 -1.7
v 3.4 0.3 -2.4
v 3.6 0.3 -2.4
v 3.4 0.3 -2.8
v 3.6 0.3 -2.8
v 5 0.3 -2.8

# faces
f 3/3/1 2/3/1 1/3/1
f 4/3/1 2/3/1 3/3/1
f 15/2/1 6/2/1 5/2/1
f 16/1/1 7/1/1 6/1/1
f 16/2/1 6/2/1 15/2/1
f 17/2/1 8/2/1 7/2/1
f 17/1/1 7/1/1 16/1/1
f 18/1/1 9/1/1 8/1/1
f 18/2/1 8/2/1 17/2/1
f 19/2/1 10/2/1 9/2/1
f 19/1/1 9/1/1 18/1/1
f 20/1/1 11/1/1 10/1/1
f 20/2/1 10/2/1 19/2/1
f 21/2/1 12/2/1 11/2/1
f 21/1/1 11/1/1 20/1/1
f 22/1/1 13/1/1 12/1/1
f 22/2/1 12/2/1 21/2/1
f 23/2/1 14/2/1 13/2/1
f 23/1/1 13/1/1 22/1/1
f 24/2/1 14/2/1 23/2/1
f 25/3/2 26/3/2 27/3/2
f 27/3/2 26/3/2 28/3/2
f 27/4/2 28/4/2 29/4/2
f 29/4/2 28/4/2 30/4/2
f 33/3/3 32/3/3 31/3/3
f 35/3/3 33/3/3 31/3/3
f 35/2/3 34/2/3 33/2/3
f 36/2/3 34/2/3 35/2/3
f 37/3/3 35/3/3 31/3/3
f 38/4/3 36/4/3 35/4/3
f 38/3/3 35/3/3 37/3/3
f 39/4/3 36/4/3 38/4/3
f 40/3/4 41/3/4 42/3/4
f 40/3/4 42/3/4 44/3/4
f 42/2/4 43/2/4 44/2/4
f 44/2/4 43/2/4 45/2/4
f 40/3/4 44/3/4 46/3/4
f 44/4/4 45/4/4 47/4/4
f 46/3/4 44/3/4 47/3/4
f 47/4/4 45/4/4 48/4/4
f 51/3/5 50/3/5 49/3/5
f 52/3/5 50/3/5 51/3/5
f 53/3/6 54/3/6 55/3/6
f 53/3/6 55/3/6 56/3/6
f 53/3/6 56/3/6 57/3/6
f 53/3/6 57/3/6 58/3/6
f 53/3/6 58/3/6 59/3/6
f 53/3/6 59/3/6 60/3/6
f 53/3/6 60/3/6 61/3/6
f 53/3/6 61/3/6 62/3/6
f 53/3/6 62/3/6 63/3/6
f 63/3/6 62/3/6 64/3/6
f 65/2/6 66/2/6 68/2/6
f 66/4/6 67/4/6 69/4/6
f 68/2/6 66/2/6 69/2/6
f 68/1/6 69/1/6 70/1/6
f 69/4/6 67/4/6 71/4/6
f 70/1/6 69/1/6 71/1/6
f 70/2/6 71/2/6 72/2/6
f 71/4/6 67/4/6 73/4/6
f 72/2/6 71/2/6 73/2/6
f 72/1/6 73/1/6 74/1/6
f 73/4/6 67/4/6 75/4/6
f 74/1/6 73/1/6 75/1/6
f 74/2/6 75/2/6 76/2/6
f 75/4/6 67/4/6 77/4/6
f 76/2/6 75/2/6 77/2/6
f 76/1/6 77/1/6 78/1/6
f 77/4/6 67/4/6 79/4/6
f 78/1/6 77/1/6 79/1/6
f 78/2/6 79/2/6 80/2/6
f 79/4/6 67/4/6 81/4/6
f 80/2/6 79/2/6 81/2/6
f 80/1/6 81/1/6 82/1/6
f 81/4/6 67/4/6 83/4/6
f 82/1/6 81/1/6 83/1/6
f 82/2/6 83/2/6 84/2/6
f 83/4/6 67/4/6 85/4/6
f 84/2/6 83/2/6 85/2/6
f 85/4/6 67/4/6 86/4/6
