# MagicaVoxel @ Ephtracy

# group
o 

# material
mtllib Street07.mtl
usemtl palette

# normals
vn -1 0 0
vn 1 0 0
vn 0 0 1
vn 0 0 -1
vn 0 -1 0
vn 0 1 0

# texcoords
vt 0.912109 0.5
vt 0.939453 0.5
vt 0.943359 0.5
vt 0.970703 0.5
vt 0.974609 0.5

# verts
v -5 0 2.8
v -5 0 -2.8
v -5 0.1 2.8
v -5 0.1 -2.8
v 3.4 0.1 2.8
v 3.4 0.1 2.5
v 3.4 0.1 1.8
v 3.4 0.1 1.1
v 3.4 0.1 0.4
v 3.4 0.1 -0.3
v 3.4 0.1 -1
v 3.4 0.1 -1.7
v 3.4 0.1 -2.4
v 3.4 0.1 -2.8
v 3.4 0.3 2.8
v 3.4 0.3 2.5
v 3.4 0.3 1.8
v 3.4 0.3 1.1
v 3.4 0.3 0.4
v 3.4 0.3 -0.3
v 3.4 0.3 -1
v 3.4 0.3 -1.7
v 3.4 0.3 -2.4
v 3.4 0.3 -2.8
v 5 0 2.8
v 5 0 -2.8
v 5 0.1 2.8
v 5 0.1 -2.8
v 5 0.3 2.8
v 5 0.3 -2.8
v -5 0 2.8
v -5 0.1 2.8
v 3.4 0.1 2.8
v 3.4 0.3 2.8
v 3.6 0.1 2.8
v 3.6 0.3 2.8
v 5 0 2.8
v 5 0.1 2.8
v 5 0.3 2.8
v -5 0 -2.8
v -5 0.1 -2.8
v 3.4 0.1 -2.8
v 3.4 0.3 -2.8
v 3.6 0.1 -2.8
v 3.6 0.3 -2.8
v 5 0 -2.8
v 5 0.1 -2.8
v 5 0.3 -2.8
v -5 0 2.8
v 5 0 2.8
v -0.0999999 0 2.5
v 0.1 0 2.5
v -0.0999999 0 1.4
v 0.1 0 1.4
v -0.0999999 0 1
v 0.1 0 1
v -0.0999999 0 -2.38419e-007
v 0.1 0 -2.38419e-007
v -0.0999999 0 -0.3
v 0.1 0 -0.3
v -0.0999999 0 -1.3
v 0.1 0 -1.3
v -0.0999999 0 -1.6
v 0.1 0 -1.6
v -0.0999999 0 -2.5
v 0.1 0 -2.5
v -5 0 -2.8
v 5 0 -2.8
v -5 0.1 2.8
v 3.4 0.1 2.8
v -0.0999999 0.1 2.5
v 0.1 0.1 2.5
v 3.4 0.1 2.5
v 3.4 0.1 1.8
v -0.0999999 0.1 1.4
v 0.1 0.1 1.4
v 3.4 0.1 1.1
v -0.0999999 0.1 1
v 0.1 0.1 1
v 3.4 0.1 0.4
v -0.0999999 0.1 -2.38419e-007
v 0.1 0.1 -2.38419e-007
v -0.0999999 0.1 -0.3
v 0.1 0.1 -0.3
v 3.4 0.1 -0.3
v 3.4 0.1 -1
v -0.0999999 0.1 -1.3
v 0.1 0.1 -1.3
v -0.0999999 0.1 -1.6
v 0.1 0.1 -1.6
v 3.4 0.1 -1.7
v 3.4 0.1 -2.4
v -0.0999999 0.1 -2.5
v 0.1 0.1 -2.5
v -5 0.1 -2.8
v 3.4 0.1 -2.8
v 3.4 0.3 2.8
v 3.6 0.3 2.8
v 5 0.3 2.8
v 3.4 0.3 2.5
v 3.6 0.3 2.5
v 3.4 0.3 1.8
v 3.6 0.3 1.8
v 3.4 0.3 1.1
v 3.6 0.3 1.1
v 3.4 0.3 0.4
v 3.6 0.3 0.4
v 3.4 0.3 -0.3
v 3.6 0.3 -0.3
v 3.4 0.3 -1
v 3.6 0.3 -1
v 3.4 0.3 -1.7
v 3.6 0.3 -1.7
v 3.4 0.3 -2.4
v 3.6 0.3 -2.4
v 3.4 0.3 -2.8
v 3.6 0.3 -2.8
v 5 0.3 -2.8

# faces
f 3/4/1 2/4/1 1/4/1
f 4/4/1 2/4/1 3/4/1
f 15/3/1 6/3/1 5/3/1
f 16/1/1 7/1/1 6/1/1
f 16/3/1 6/3/1 15/3/1
f 17/3/1 8/3/1 7/3/1
f 17/1/1 7/1/1 16/1/1
f 18/1/1 9/1/1 8/1/1
f 18/3/1 8/3/1 17/3/1
f 19/3/1 10/3/1 9/3/1
f 19/1/1 9/1/1 18/1/1
f 20/1/1 11/1/1 10/1/1
f 20/3/1 10/3/1 19/3/1
f 21/3/1 12/3/1 11/3/1
f 21/1/1 11/1/1 20/1/1
f 22/1/1 13/1/1 12/1/1
f 22/3/1 12/3/1 21/3/1
f 23/3/1 14/3/1 13/3/1
f 23/1/1 13/1/1 22/1/1
f 24/3/1 14/3/1 23/3/1
f 25/4/2 26/4/2 27/4/2
f 27/4/2 26/4/2 28/4/2
f 27/5/2 28/5/2 29/5/2
f 29/5/2 28/5/2 30/5/2
f 33/4/3 32/4/3 31/4/3
f 35/4/3 33/4/3 31/4/3
f 35/3/3 34/3/3 33/3/3
f 36/3/3 34/3/3 35/3/3
f 37/4/3 35/4/3 31/4/3
f 38/5/3 36/5/3 35/5/3
f 38/4/3 35/4/3 37/4/3
f 39/5/3 36/5/3 38/5/3
f 40/4/4 41/4/4 42/4/4
f 40/4/4 42/4/4 44/4/4
f 42/3/4 43/3/4 44/3/4
f 44/3/4 43/3/4 45/3/4
f 40/4/4 44/4/4 46/4/4
f 44/5/4 45/5/4 47/5/4
f 46/4/4 44/4/4 47/4/4
f 47/5/4 45/5/4 48/5/4
f 51/4/5 50/4/5 49/4/5
f 52/4/5 50/4/5 51/4/5
f 53/4/5 51/4/5 49/4/5
f 53/2/5 52/2/5 51/2/5
f 54/4/5 50/4/5 52/4/5
f 54/2/5 52/2/5 53/2/5
f 55/4/5 53/4/5 49/4/5
f 55/4/5 54/4/5 53/4/5
f 56/4/5 50/4/5 54/4/5
f 56/4/5 54/4/5 55/4/5
f 57/4/5 55/4/5 49/4/5
f 57/2/5 56/2/5 55/2/5
f 58/4/5 50/4/5 56/4/5
f 58/2/5 56/2/5 57/2/5
f 59/4/5 57/4/5 49/4/5
f 59/4/5 58/4/5 57/4/5
f 60/4/5 50/4/5 58/4/5
f 60/4/5 58/4/5 59/4/5
f 61/4/5 59/4/5 49/4/5
f 61/2/5 60/2/5 59/2/5
f 62/4/5 50/4/5 60/4/5
f 62/2/5 60/2/5 61/2/5
f 63/4/5 61/4/5 49/4/5
f 63/4/5 62/4/5 61/4/5
f 64/4/5 50/4/5 62/4/5
f 64/4/5 62/4/5 63/4/5
f 65/4/5 63/4/5 49/4/5
f 65/2/5 64/2/5 63/2/5
f 66/4/5 50/4/5 64/4/5
f 66/2/5 64/2/5 65/2/5
f 67/4/5 65/4/5 49/4/5
f 67/4/5 66/4/5 65/4/5
f 68/4/5 50/4/5 66/4/5
f 68/4/5 66/4/5 67/4/5
f 69/4/6 70/4/6 71/4/6
f 71/4/6 70/4/6 72/4/6
f 72/4/6 70/4/6 73/4/6
f 72/4/6 73/4/6 74/4/6
f 69/4/6 71/4/6 75/4/6
f 71/2/6 72/2/6 75/2/6
f 72/4/6 74/4/6 76/4/6
f 75/2/6 72/2/6 76/2/6
f 75/4/6 76/4/6 77/4/6
f 76/4/6 74/4/6 77/4/6
f 69/4/6 75/4/6 78/4/6
f 75/4/6 77/4/6 78/4/6
f 78/4/6 77/4/6 79/4/6
f 79/4/6 77/4/6 80/4/6
f 69/4/6 78/4/6 81/4/6
f 78/2/6 79/2/6 81/2/6
f 79/4/6 80/4/6 82/4/6
f 81/2/6 79/2/6 82/2/6
f 69/4/6 81/4/6 83/4/6
f 81/4/6 82/4/6 83/4/6
f 82/4/6 80/4/6 84/4/6
f 83/4/6 82/4/6 84/4/6
f 84/4/6 80/4/6 85/4/6
f 84/4/6 85/4/6 86/4/6
f 69/4/6 83/4/6 87/4/6
f 83/2/6 84/2/6 87/2/6
f 84/4/6 86/4/6 88/4/6
f 87/2/6 84/2/6 88/2/6
f 69/4/6 87/4/6 89/4/6
f 87/4/6 88/4/6 89/4/6
f 88/4/6 86/4/6 90/4/6
f 89/4/6 88/4/6 90/4/6
f 90/4/6 86/4/6 91/4/6
f 90/4/6 91/4/6 92/4/6
f 69/4/6 89/4/6 93/4/6
f 89/2/6 90/2/6 93/2/6
f 90/4/6 92/4/6 94/4/6
f 93/2/6 90/2/6 94/2/6
f 69/4/6 93/4/6 95/4/6
f 93/4/6 94/4/6 95/4/6
f 94/4/6 92/4/6 96/4/6
f 95/4/6 94/4/6 96/4/6
f 97/3/6 98/3/6 100/3/6
f 98/5/6 99/5/6 101/5/6
f 100/3/6 98/3/6 101/3/6
f 100/1/6 101/1/6 102/1/6
f 101/5/6 99/5/6 103/5/6
f 102/1/6 101/1/6 103/1/6
f 102/3/6 103/3/6 104/3/6
f 103/5/6 99/5/6 105/5/6
f 104/3/6 103/3/6 105/3/6
f 104/1/6 105/1/6 106/1/6
f 105/5/6 99/5/6 107/5/6
f 106/1/6 105/1/6 107/1/6
f 106/3/6 107/3/6 108/3/6
f 107/5/6 99/5/6 109/5/6
f 108/3/6 107/3/6 109/3/6
f 108/1/6 109/1/6 110/1/6
f 109/5/6 99/5/6 111/5/6
f 110/1/6 109/1/6 111/1/6
f 110/3/6 111/3/6 112/3/6
f 111/5/6 99/5/6 113/5/6
f 112/3/6 111/3/6 113/3/6
f 112/1/6 113/1/6 114/1/6
f 113/5/6 99/5/6 115/5/6
f 114/1/6 113/1/6 115/1/6
f 114/3/6 115/3/6 116/3/6
f 115/5/6 99/5/6 117/5/6
f 116/3/6 115/3/6 117/3/6
f 117/5/6 99/5/6 118/5/6
