# MagicaVoxel @ Ephtracy

# group
o 

# material
mtllib Street04.mtl
usemtl palette

# normals
vn -1 0 0
vn 1 0 0
vn 0 0 1
vn 0 0 -1
vn 0 -1 0
vn 0 1 0

# texcoords
vt 0.912109 0.5
vt 0.939453 0.5
vt 0.943359 0.5
vt 0.970703 0.5
vt 0.974609 0.5

# verts
v -10 0 5
v -10 0 -5
v -10 0.1 5
v -10 0.1 -5
v -10 0.3 5
v -10 0.3 -5
v 6.9 0.1 5
v 6.9 0.1 4.3
v 6.9 0.1 3.4
v 6.9 0.1 -3.4
v 6.9 0.1 -4
v 6.9 0.1 -5
v 6.9 0.3 5
v 6.9 0.3 4.3
v 6.9 0.3 3.4
v 6.9 0.3 -3.4
v 6.9 0.3 -4
v 6.9 0.3 -5
v -6.9 0.1 5
v -6.9 0.1 4.3
v -6.9 0.1 3.3
v -6.9 0.1 2.5
v -6.9 0.1 1.9
v -6.9 0.1 1.2
v -6.9 0.1 0.6
v -6.9 0.1 -0.6
v -6.9 0.1 -1.2
v -6.9 0.1 -1.9
v -6.9 0.1 -3
v -6.9 0.1 -4
v -6.9 0.1 -5
v -6.9 0.3 5
v -6.9 0.3 4.3
v -6.9 0.3 3.3
v -6.9 0.3 2.5
v -6.9 0.3 1.9
v -6.9 0.3 1.2
v -6.9 0.3 0.6
v -6.9 0.3 -0.6
v -6.9 0.3 -1.2
v -6.9 0.3 -1.9
v -6.9 0.3 -3
v -6.9 0.3 -4
v -6.9 0.3 -5
v 10 0 5
v 10 0 -5
v 10 0.1 5
v 10 0.1 3.6
v 10 0.1 3.4
v 10 0.1 -3.4
v 10 0.1 -3.6
v 10 0.1 -5
v 10 0.3 5
v 10 0.3 3.6
v 10 0.3 3.4
v 10 0.3 -3.4
v 10 0.3 -3.6
v 10 0.3 -5
v -10 0 5
v -10 0.1 5
v -10 0.3 5
v -7.2 0.1 5
v -7.2 0.3 5
v -6.9 0.1 5
v -6.9 0.3 5
v -0.1 0 5
v -0.1 0.1 5
v 0.0999994 0 5
v 0.0999994 0.1 5
v 6.9 0.1 5
v 6.9 0.3 5
v 7.2 0.1 5
v 7.2 0.3 5
v 10 0 5
v 10 0.1 5
v 10 0.3 5
v 6.9 0.1 -3.4
v 6.9 0.3 -3.4
v 7.2 0.1 -3.4
v 7.2 0.3 -3.4
v 7.9 0.1 -3.4
v 7.9 0.3 -3.4
v 8.7 0.1 -3.4
v 8.7 0.3 -3.4
v 9.5 0.1 -3.4
v 9.5 0.3 -3.4
v 10 0.1 -3.4
v 10 0.3 -3.4
v 6.9 0.1 3.4
v 6.9 0.3 3.4
v 7.2 0.1 3.4
v 7.2 0.3 3.4
v 7.9 0.1 3.4
v 7.9 0.3 3.4
v 8.7 0.1 3.4
v 8.7 0.3 3.4
v 9.4 0.1 3.4
v 9.4 0.3 3.4
v 10 0.1 3.4
v 10 0.3 3.4
v -10 0 -5
v -10 0.1 -5
v -10 0.3 -5
v -7.2 0.1 -5
v -7.2 0.3 -5
v -6.9 0.1 -5
v -6.9 0.3 -5
v 6.9 0.1 -5
v 6.9 0.3 -5
v 7.2 0.1 -5
v 7.2 0.3 -5
v 10 0 -5
v 10 0.1 -5
v 10 0.3 -5
v -10 0 5
v -0.1 0 5
v 0.0999994 0 5
v 10 0 5
v -3.8 0 4.9
v -3.7 0 4.9
v 3.7 0 4.9
v 3.8 0 4.9
v -3.8 0 4.1
v -3.7 0 4.1
v -0.1 0 4.1
v 0.0999994 0 4.1
v 3.7 0 4.1
v 3.8 0 4.1
v -6.6 0 3.6
v 6.7 0 3.6
v -6.6 0 3.5
v 6.7 0 3.5
v 7.3 0 3.3
v 7.4 0 3.3
v 7.3 0 -3.3
v 7.4 0 -3.3
v -6.6 0 -3.5
v 6.7 0 -3.5
v -6.6 0 -3.6
v 6.7 0 -3.6
v -0.1 0 -3.8
v 0.0999994 0 -3.8
v -3.8 0 -4.1
v -3.7 0 -4.1
v 3.7 0 -4.1
v 3.8 0 -4.1
v -0.1 0 -4.7
v 0.0999994 0 -4.7
v -3.8 0 -4.9
v -3.7 0 -4.9
v 3.7 0 -4.9
v 3.8 0 -4.9
v -10 0 -5
v 10 0 -5
v -6.9 0.1 5
v -0.1 0.1 5
v 0.0999994 0.1 5
v 6.9 0.1 5
v -3.8 0.1 4.9
v -3.7 0.1 4.9
v 3.7 0.1 4.9
v 3.8 0.1 4.9
v -6.9 0.1 4.3
v 6.9 0.1 4.3
v -3.8 0.1 4.1
v -3.7 0.1 4.1
v -0.1 0.1 4.1
v 0.0999994 0.1 4.1
v 3.7 0.1 4.1
v 3.8 0.1 4.1
v -6.6 0.1 3.6
v 6.7 0.1 3.6
v -6.6 0.1 3.5
v 6.7 0.1 3.5
v 6.9 0.1 3.4
v 7.2 0.1 3.4
v 7.9 0.1 3.4
v 8.7 0.1 3.4
v 9.4 0.1 3.4
v 10 0.1 3.4
v -6.9 0.1 3.3
v 7.3 0.1 3.3
v 7.4 0.1 3.3
v -6.9 0.1 2.5
v -6.9 0.1 1.9
v -6.9 0.1 1.2
v -6.9 0.1 0.6
v -6.9 0.1 -0.6
v -6.9 0.1 -1.2
v -6.9 0.1 -1.9
v -6.9 0.1 -3
v 7.3 0.1 -3.3
v 7.4 0.1 -3.3
v 6.9 0.1 -3.4
v 7.2 0.1 -3.4
v 7.9 0.1 -3.4
v 8.7 0.1 -3.4
v 9.5 0.1 -3.4
v 10 0.1 -3.4
v -6.6 0.1 -3.5
v 6.7 0.1 -3.5
v -6.6 0.1 -3.6
v 6.7 0.1 -3.6
v -0.1 0.1 -3.8
v 0.0999994 0.1 -3.8
v -6.9 0.1 -4
v 6.9 0.1 -4
v -3.8 0.1 -4.1
v -3.7 0.1 -4.1
v 3.7 0.1 -4.1
v 3.8 0.1 -4.1
v -0.1 0.1 -4.7
v 0.0999994 0.1 -4.7
v -3.8 0.1 -4.9
v -3.7 0.1 -4.9
v 3.7 0.1 -4.9
v 3.8 0.1 -4.9
v -6.9 0.1 -5
v 6.9 0.1 -5
v -10 0.3 5
v -7.2 0.3 5
v -6.9 0.3 5
v 6.9 0.3 5
v 7.2 0.3 5
v 10 0.3 5
v -7.2 0.3 4.3
v -6.9 0.3 4.3
v 6.9 0.3 4.3
v 7.2 0.3 4.3
v 7.2 0.3 3.6
v 7.9 0.3 3.6
v 8.7 0.3 3.6
v 9.4 0.3 3.6
v 10 0.3 3.6
v 6.9 0.3 3.4
v 7.2 0.3 3.4
v 7.9 0.3 3.4
v 8.7 0.3 3.4
v 9.4 0.3 3.4
v 10 0.3 3.4
v -7.2 0.3 3.3
v -6.9 0.3 3.3
v -7.2 0.3 2.5
v -6.9 0.3 2.5
v -7.2 0.3 1.9
v -6.9 0.3 1.9
v -7.2 0.3 1.2
v -6.9 0.3 1.2
v -7.2 0.3 0.6
v -6.9 0.3 0.6
v -7.2 0.3 -0.6
v -6.9 0.3 -0.6
v -7.2 0.3 -1.2
v -6.9 0.3 -1.2
v -7.2 0.3 -1.9
v -6.9 0.3 -1.9
v -7.2 0.3 -3
v -6.9 0.3 -3
v 6.9 0.3 -3.4
v 7.2 0.3 -3.4
v 7.9 0.3 -3.4
v 8.7 0.3 -3.4
v 9.5 0.3 -3.4
v 10 0.3 -3.4
v 7.2 0.3 -3.6
v 7.9 0.3 -3.6
v 8.7 0.3 -3.6
v 9.5 0.3 -3.6
v 10 0.3 -3.6
v -7.2 0.3 -4
v -6.9 0.3 -4
v 6.9 0.3 -4
v 7.2 0.3 -4
v -10 0.3 -5
v -7.2 0.3 -5
v -6.9 0.3 -5
v 6.9 0.3 -5
v 7.2 0.3 -5
v 10 0.3 -5

# faces
f 3/4/1 2/4/1 1/4/1
f 4/4/1 2/4/1 3/4/1
f 5/5/1 4/5/1 3/5/1
f 6/5/1 4/5/1 5/5/1
f 13/3/1 8/3/1 7/3/1
f 14/1/1 9/1/1 8/1/1
f 14/3/1 8/3/1 13/3/1
f 15/1/1 9/1/1 14/1/1
f 16/3/1 11/3/1 10/3/1
f 17/1/1 12/1/1 11/1/1
f 17/3/1 11/3/1 16/3/1
f 18/1/1 12/1/1 17/1/1
f 19/3/2 20/3/2 32/3/2
f 20/1/2 21/1/2 33/1/2
f 32/3/2 20/3/2 33/3/2
f 21/3/2 22/3/2 34/3/2
f 33/1/2 21/1/2 34/1/2
f 22/1/2 23/1/2 35/1/2
f 34/3/2 22/3/2 35/3/2
f 23/3/2 24/3/2 36/3/2
f 35/1/2 23/1/2 36/1/2
f 24/1/2 25/1/2 37/1/2
f 36/3/2 24/3/2 37/3/2
f 25/3/2 26/3/2 38/3/2
f 37/1/2 25/1/2 38/1/2
f 26/1/2 27/1/2 39/1/2
f 38/3/2 26/3/2 39/3/2
f 27/3/2 28/3/2 40/3/2
f 39/1/2 27/1/2 40/1/2
f 28/1/2 29/1/2 41/1/2
f 40/3/2 28/3/2 41/3/2
f 29/3/2 30/3/2 42/3/2
f 41/1/2 29/1/2 42/1/2
f 30/1/2 31/1/2 43/1/2
f 42/3/2 30/3/2 43/3/2
f 43/1/2 31/1/2 44/1/2
f 45/4/2 46/4/2 47/4/2
f 47/4/2 46/4/2 48/4/2
f 48/4/2 46/4/2 49/4/2
f 49/4/2 46/4/2 50/4/2
f 50/4/2 46/4/2 51/4/2
f 51/4/2 46/4/2 52/4/2
f 47/5/2 48/5/2 53/5/2
f 48/1/2 49/1/2 54/1/2
f 53/5/2 48/5/2 54/5/2
f 54/1/2 49/1/2 55/1/2
f 50/3/2 51/3/2 56/3/2
f 51/5/2 52/5/2 57/5/2
f 56/3/2 51/3/2 57/3/2
f 57/5/2 52/5/2 58/5/2
f 62/4/3 60/4/3 59/4/3
f 62/5/3 61/5/3 60/5/3
f 63/5/3 61/5/3 62/5/3
f 64/4/3 62/4/3 59/4/3
f 64/3/3 63/3/3 62/3/3
f 65/3/3 63/3/3 64/3/3
f 66/4/3 64/4/3 59/4/3
f 67/4/3 64/4/3 66/4/3
f 68/2/3 67/2/3 66/2/3
f 69/2/3 67/2/3 68/2/3
f 70/4/3 69/4/3 68/4/3
f 72/4/3 70/4/3 68/4/3
f 72/3/3 71/3/3 70/3/3
f 73/3/3 71/3/3 72/3/3
f 74/4/3 72/4/3 68/4/3
f 75/5/3 73/5/3 72/5/3
f 75/4/3 72/4/3 74/4/3
f 76/5/3 73/5/3 75/5/3
f 79/3/3 78/3/3 77/3/3
f 80/3/3 78/3/3 79/3/3
f 81/1/3 80/1/3 79/1/3
f 82/1/3 80/1/3 81/1/3
f 83/3/3 82/3/3 81/3/3
f 84/3/3 82/3/3 83/3/3
f 85/1/3 84/1/3 83/1/3
f 86/1/3 84/1/3 85/1/3
f 87/3/3 86/3/3 85/3/3
f 88/3/3 86/3/3 87/3/3
f 89/1/4 90/1/4 91/1/4
f 91/1/4 90/1/4 92/1/4
f 91/3/4 92/3/4 93/3/4
f 93/3/4 92/3/4 94/3/4
f 93/1/4 94/1/4 95/1/4
f 95/1/4 94/1/4 96/1/4
f 95/3/4 96/3/4 97/3/4
f 97/3/4 96/3/4 98/3/4
f 97/1/4 98/1/4 99/1/4
f 99/1/4 98/1/4 100/1/4
f 101/4/4 102/4/4 104/4/4
f 102/5/4 103/5/4 104/5/4
f 104/5/4 103/5/4 105/5/4
f 101/4/4 104/4/4 106/4/4
f 104/1/4 105/1/4 106/1/4
f 106/1/4 105/1/4 107/1/4
f 101/4/4 106/4/4 108/4/4
f 101/4/4 108/4/4 110/4/4
f 108/1/4 109/1/4 110/1/4
f 110/1/4 109/1/4 111/1/4
f 101/4/4 110/4/4 112/4/4
f 110/5/4 111/5/4 113/5/4
f 112/4/4 110/4/4 113/4/4
f 113/5/4 111/5/4 114/5/4
f 119/4/5 116/4/5 115/4/5
f 120/4/5 116/4/5 119/4/5
f 121/4/5 118/4/5 117/4/5
f 122/4/5 118/4/5 121/4/5
f 123/4/5 119/4/5 115/4/5
f 123/2/5 120/2/5 119/2/5
f 124/4/5 116/4/5 120/4/5
f 124/2/5 120/2/5 123/2/5
f 125/2/5 117/2/5 116/2/5
f 125/4/5 116/4/5 124/4/5
f 126/4/5 121/4/5 117/4/5
f 126/2/5 117/2/5 125/2/5
f 127/2/5 122/2/5 121/2/5
f 127/4/5 121/4/5 126/4/5
f 128/4/5 118/4/5 122/4/5
f 128/2/5 122/2/5 127/2/5
f 129/4/5 123/4/5 115/4/5
f 129/4/5 124/4/5 123/4/5
f 129/4/5 128/4/5 127/4/5
f 129/4/5 125/4/5 124/4/5
f 129/4/5 126/4/5 125/4/5
f 129/4/5 127/4/5 126/4/5
f 130/4/5 118/4/5 128/4/5
f 130/4/5 128/4/5 129/4/5
f 131/4/5 129/4/5 115/4/5
f 131/2/5 130/2/5 129/2/5
f 132/4/5 118/4/5 130/4/5
f 132/2/5 130/2/5 131/2/5
f 133/4/5 132/4/5 131/4/5
f 133/4/5 118/4/5 132/4/5
f 134/4/5 118/4/5 133/4/5
f 135/4/5 133/4/5 131/4/5
f 135/2/5 134/2/5 133/2/5
f 136/4/5 118/4/5 134/4/5
f 136/2/5 134/2/5 135/2/5
f 137/4/5 131/4/5 115/4/5
f 137/4/5 135/4/5 131/4/5
f 137/4/5 136/4/5 135/4/5
f 138/4/5 136/4/5 137/4/5
f 139/4/5 137/4/5 115/4/5
f 139/2/5 138/2/5 137/2/5
f 140/4/5 136/4/5 138/4/5
f 140/2/5 138/2/5 139/2/5
f 141/4/5 140/4/5 139/4/5
f 142/4/5 140/4/5 141/4/5
f 143/4/5 141/4/5 139/4/5
f 144/4/5 141/4/5 143/4/5
f 145/4/5 140/4/5 142/4/5
f 146/4/5 140/4/5 145/4/5
f 147/4/5 141/4/5 144/4/5
f 147/2/5 142/2/5 141/2/5
f 148/4/5 145/4/5 142/4/5
f 148/2/5 142/2/5 147/2/5
f 149/4/5 143/4/5 139/4/5
f 149/2/5 144/2/5 143/2/5
f 150/4/5 148/4/5 147/4/5
f 150/2/5 144/2/5 149/2/5
f 150/4/5 147/4/5 144/4/5
f 151/2/5 146/2/5 145/2/5
f 151/4/5 148/4/5 150/4/5
f 151/4/5 145/4/5 148/4/5
f 152/4/5 140/4/5 146/4/5
f 152/2/5 146/2/5 151/2/5
f 153/4/5 139/4/5 115/4/5
f 153/4/5 151/4/5 150/4/5
f 153/4/5 152/4/5 151/4/5
f 153/4/5 149/4/5 139/4/5
f 153/4/5 150/4/5 149/4/5
f 154/4/5 118/4/5 136/4/5
f 154/4/5 152/4/5 153/4/5
f 154/4/5 140/4/5 152/4/5
f 154/4/5 136/4/5 140/4/5
f 155/4/6 156/4/6 159/4/6
f 159/4/6 156/4/6 160/4/6
f 157/4/6 158/4/6 161/4/6
f 161/4/6 158/4/6 162/4/6
f 155/4/6 159/4/6 163/4/6
f 162/4/6 158/4/6 164/4/6
f 163/4/6 159/4/6 165/4/6
f 159/2/6 160/2/6 165/2/6
f 160/4/6 156/4/6 166/4/6
f 165/2/6 160/2/6 166/2/6
f 156/2/6 157/2/6 167/2/6
f 166/4/6 156/4/6 167/4/6
f 157/4/6 161/4/6 168/4/6
f 167/2/6 157/2/6 168/2/6
f 161/2/6 162/2/6 169/2/6
f 168/4/6 161/4/6 169/4/6
f 162/4/6 164/4/6 170/4/6
f 169/2/6 162/2/6 170/2/6
f 163/4/6 165/4/6 171/4/6
f 165/4/6 166/4/6 171/4/6
f 169/4/6 170/4/6 171/4/6
f 168/4/6 169/4/6 171/4/6
f 167/4/6 168/4/6 171/4/6
f 166/4/6 167/4/6 171/4/6
f 170/4/6 164/4/6 172/4/6
f 171/4/6 170/4/6 172/4/6
f 163/4/6 171/4/6 173/4/6
f 171/2/6 172/2/6 173/2/6
f 172/4/6 164/4/6 174/4/6
f 173/2/6 172/2/6 174/2/6
f 173/4/6 174/4/6 175/4/6
f 174/4/6 164/4/6 175/4/6
f 163/4/6 173/4/6 181/4/6
f 179/4/6 180/4/6 181/4/6
f 178/4/6 179/4/6 181/4/6
f 177/4/6 178/4/6 181/4/6
f 176/4/6 177/4/6 181/4/6
f 175/4/6 176/4/6 181/4/6
f 173/4/6 175/4/6 181/4/6
f 181/4/6 180/4/6 182/4/6
f 182/4/6 180/4/6 183/4/6
f 181/4/6 182/4/6 184/4/6
f 184/4/6 182/4/6 185/4/6
f 185/4/6 182/4/6 186/4/6
f 186/4/6 182/4/6 187/4/6
f 187/4/6 182/4/6 188/4/6
f 188/4/6 182/4/6 189/4/6
f 189/4/6 182/4/6 190/4/6
f 190/4/6 182/4/6 191/4/6
f 182/2/6 183/2/6 192/2/6
f 191/4/6 182/4/6 192/4/6
f 183/4/6 180/4/6 193/4/6
f 192/2/6 183/2/6 193/2/6
f 191/4/6 192/4/6 194/4/6
f 192/4/6 193/4/6 194/4/6
f 194/4/6 193/4/6 195/4/6
f 193/4/6 180/4/6 196/4/6
f 195/4/6 193/4/6 196/4/6
f 196/4/6 180/4/6 197/4/6
f 197/4/6 180/4/6 198/4/6
f 198/4/6 180/4/6 199/4/6
f 191/4/6 194/4/6 200/4/6
f 200/4/6 194/4/6 201/4/6
f 191/4/6 200/4/6 202/4/6
f 200/2/6 201/2/6 202/2/6
f 201/4/6 194/4/6 203/4/6
f 202/2/6 201/2/6 203/2/6
f 202/4/6 203/4/6 204/4/6
f 204/4/6 203/4/6 205/4/6
f 191/4/6 202/4/6 206/4/6
f 202/4/6 204/4/6 206/4/6
f 205/4/6 203/4/6 207/4/6
f 203/4/6 194/4/6 207/4/6
f 206/4/6 204/4/6 208/4/6
f 208/4/6 204/4/6 209/4/6
f 205/4/6 207/4/6 210/4/6
f 210/4/6 207/4/6 211/4/6
f 204/2/6 205/2/6 212/2/6
f 209/4/6 204/4/6 212/4/6
f 205/4/6 210/4/6 213/4/6
f 212/2/6 205/2/6 213/2/6
f 206/4/6 208/4/6 214/4/6
f 208/2/6 209/2/6 214/2/6
f 212/4/6 213/4/6 215/4/6
f 214/2/6 209/2/6 215/2/6
f 209/4/6 212/4/6 215/4/6
f 210/2/6 211/2/6 216/2/6
f 215/4/6 213/4/6 216/4/6
f 213/4/6 210/4/6 216/4/6
f 211/4/6 207/4/6 217/4/6
f 216/2/6 211/2/6 217/2/6
f 215/4/6 216/4/6 218/4/6
f 214/4/6 215/4/6 218/4/6
f 216/4/6 217/4/6 218/4/6
f 206/4/6 214/4/6 218/4/6
f 217/4/6 207/4/6 219/4/6
f 218/4/6 217/4/6 219/4/6
f 220/5/6 221/5/6 226/5/6
f 221/3/6 222/3/6 226/3/6
f 226/3/6 222/3/6 227/3/6
f 223/3/6 224/3/6 228/3/6
f 224/5/6 225/5/6 229/5/6
f 228/3/6 224/3/6 229/3/6
f 228/1/6 229/1/6 230/1/6
f 229/5/6 225/5/6 230/5/6
f 230/5/6 225/5/6 231/5/6
f 231/5/6 225/5/6 232/5/6
f 232/5/6 225/5/6 233/5/6
f 233/5/6 225/5/6 234/5/6
f 228/1/6 230/1/6 235/1/6
f 230/3/6 231/3/6 236/3/6
f 235/1/6 230/1/6 236/1/6
f 231/1/6 232/1/6 237/1/6
f 236/3/6 231/3/6 237/3/6
f 232/3/6 233/3/6 238/3/6
f 237/1/6 232/1/6 238/1/6
f 233/1/6 234/1/6 239/1/6
f 238/3/6 233/3/6 239/3/6
f 239/1/6 234/1/6 240/1/6
f 226/1/6 227/1/6 241/1/6
f 220/5/6 226/5/6 241/5/6
f 241/1/6 227/1/6 242/1/6
f 220/5/6 241/5/6 243/5/6
f 241/3/6 242/3/6 243/3/6
f 243/3/6 242/3/6 244/3/6
f 220/5/6 243/5/6 245/5/6
f 243/1/6 244/1/6 245/1/6
f 245/1/6 244/1/6 246/1/6
f 220/5/6 245/5/6 247/5/6
f 245/3/6 246/3/6 247/3/6
f 247/3/6 246/3/6 248/3/6
f 220/5/6 247/5/6 249/5/6
f 247/1/6 248/1/6 249/1/6
f 249/1/6 248/1/6 250/1/6
f 220/5/6 249/5/6 251/5/6
f 249/3/6 250/3/6 251/3/6
f 251/3/6 250/3/6 252/3/6
f 220/5/6 251/5/6 253/5/6
f 251/1/6 252/1/6 253/1/6
f 253/1/6 252/1/6 254/1/6
f 220/5/6 253/5/6 255/5/6
f 253/3/6 254/3/6 255/3/6
f 255/3/6 254/3/6 256/3/6
f 220/5/6 255/5/6 257/5/6
f 255/1/6 256/1/6 257/1/6
f 257/1/6 256/1/6 258/1/6
f 259/3/6 260/3/6 265/3/6
f 260/1/6 261/1/6 265/1/6
f 261/3/6 262/3/6 266/3/6
f 265/1/6 261/1/6 266/1/6
f 262/1/6 263/1/6 267/1/6
f 266/3/6 262/3/6 267/3/6
f 263/3/6 264/3/6 268/3/6
f 267/1/6 263/1/6 268/1/6
f 268/3/6 264/3/6 269/3/6
f 257/3/6 258/3/6 270/3/6
f 220/5/6 257/5/6 270/5/6
f 270/3/6 258/3/6 271/3/6
f 259/3/6 265/3/6 272/3/6
f 268/5/6 269/5/6 273/5/6
f 272/3/6 265/3/6 273/3/6
f 266/5/6 267/5/6 273/5/6
f 265/5/6 266/5/6 273/5/6
f 267/5/6 268/5/6 273/5/6
f 220/5/6 270/5/6 274/5/6
f 270/1/6 271/1/6 275/1/6
f 274/5/6 270/5/6 275/5/6
f 275/1/6 271/1/6 276/1/6
f 272/1/6 273/1/6 277/1/6
f 273/5/6 269/5/6 278/5/6
f 277/1/6 273/1/6 278/1/6
f 278/5/6 269/5/6 279/5/6
