# MagicaVoxel @ Ephtracy

# group
o 

# material
mtllib Wall.mtl
usemtl palette

# normals
vn -1 0 0
vn 1 0 0
vn 0 0 1
vn 0 0 -1
vn 0 -1 0
vn 0 1 0

# texcoords
vt 0.841797 0.5
vt 0.873047 0.5
vt 0.904297 0.5
vt 0.935547 0.5

# verts
v -5 0 0.4
v -5 0 -0.4
v -5 2.9 0.4
v -5 2.9 -0.4
v -5 5.7 0.4
v -5 5.7 -0.4
v -5 6 0.4
v -5 6 -0.4
v -5 7.1 0.5
v -5 7.1 0.4
v -5 7.1 -0.4
v -5 7.1 -0.5
v -5 8 0.5
v -5 8 -0.5
v 5 0 0.4
v 5 0 -0.4
v 5 2.9 0.4
v 5 2.9 -0.4
v 5 5.7 0.4
v 5 5.7 -0.4
v 5 6 0.4
v 5 6 -0.4
v 5 7.1 0.5
v 5 7.1 0.4
v 5 7.1 -0.4
v 5 7.1 -0.5
v 5 8 0.5
v 5 8 -0.5
v -5 7.1 0.5
v -5 8 0.5
v 5 7.1 0.5
v 5 8 0.5
v -5 0 0.4
v -5 2.9 0.4
v -5 5.7 0.4
v -5 6 0.4
v -5 7.1 0.4
v 5 0 0.4
v 5 2.9 0.4
v 5 5.7 0.4
v 5 6 0.4
v 5 7.1 0.4
v -5 0 -0.4
v -5 2.9 -0.4
v -5 5.7 -0.4
v -5 6 -0.4
v -5 7.1 -0.4
v 5 0 -0.4
v 5 2.9 -0.4
v 5 5.7 -0.4
v 5 6 -0.4
v 5 7.1 -0.4
v -5 7.1 -0.5
v -5 8 -0.5
v 5 7.1 -0.5
v 5 8 -0.5
v -5 0 0.4
v 5 0 0.4
v -5 0 -0.4
v 5 0 -0.4
v -5 7.1 0.5
v 5 7.1 0.5
v -5 7.1 0.4
v 5 7.1 0.4
v -5 7.1 -0.4
v 5 7.1 -0.4
v -5 7.1 -0.5
v 5 7.1 -0.5
v -5 8 0.5
v 5 8 0.5
v -5 8 -0.5
v 5 8 -0.5

# faces
f 3/1/1 2/1/1 1/1/1
f 4/1/1 2/1/1 3/1/1
f 5/4/1 4/4/1 3/4/1
f 6/4/1 4/4/1 5/4/1
f 7/3/1 6/3/1 5/3/1
f 8/3/1 6/3/1 7/3/1
f 10/4/1 8/4/1 7/4/1
f 11/4/1 8/4/1 10/4/1
f 13/2/1 11/2/1 10/2/1
f 13/2/1 12/2/1 11/2/1
f 13/2/1 10/2/1 9/2/1
f 14/2/1 12/2/1 13/2/1
f 15/1/2 16/1/2 17/1/2
f 17/1/2 16/1/2 18/1/2
f 17/4/2 18/4/2 19/4/2
f 19/4/2 18/4/2 20/4/2
f 19/3/2 20/3/2 21/3/2
f 21/3/2 20/3/2 22/3/2
f 21/4/2 22/4/2 24/4/2
f 24/4/2 22/4/2 25/4/2
f 24/2/2 25/2/2 27/2/2
f 25/2/2 26/2/2 27/2/2
f 23/2/2 24/2/2 27/2/2
f 27/2/2 26/2/2 28/2/2
f 31/2/3 30/2/3 29/2/3
f 32/2/3 30/2/3 31/2/3
f 38/1/3 34/1/3 33/1/3
f 39/4/3 35/4/3 34/4/3
f 39/1/3 34/1/3 38/1/3
f 40/3/3 36/3/3 35/3/3
f 40/4/3 35/4/3 39/4/3
f 41/4/3 37/4/3 36/4/3
f 41/3/3 36/3/3 40/3/3
f 42/4/3 37/4/3 41/4/3
f 43/1/4 44/1/4 48/1/4
f 44/4/4 45/4/4 49/4/4
f 48/1/4 44/1/4 49/1/4
f 45/3/4 46/3/4 50/3/4
f 49/4/4 45/4/4 50/4/4
f 46/4/4 47/4/4 51/4/4
f 50/3/4 46/3/4 51/3/4
f 51/4/4 47/4/4 52/4/4
f 53/2/4 54/2/4 55/2/4
f 55/2/4 54/2/4 56/2/4
f 59/1/5 58/1/5 57/1/5
f 60/1/5 58/1/5 59/1/5
f 63/2/5 62/2/5 61/2/5
f 64/2/5 62/2/5 63/2/5
f 67/2/5 66/2/5 65/2/5
f 68/2/5 66/2/5 67/2/5
f 69/2/6 70/2/6 71/2/6
f 71/2/6 70/2/6 72/2/6
